<svg id="Layer_1" enable-background="new 0 0 512 512" height="512" viewBox="0 0 512 512" width="512" xmlns="http://www.w3.org/2000/svg"><path d="m318.441 458.688 2.599 43.163c.216 3.574-2.329 6.723-5.87 7.257-12.68 1.919-25.658 2.892-38.564 2.892-12.892 0-25.866-.973-38.56-2.892-3.541-.534-6.09-3.683-5.874-7.255l2.225-37.062c-27.113-5.435-52.483-15.951-75.579-31.332l-24.622 27.78c-2.374 2.673-6.401 3.106-9.28.98-20.829-15.341-39.177-33.69-54.537-54.537-2.126-2.881-1.703-6.906.978-9.282l27.771-24.616c-15.379-23.091-25.897-48.463-31.334-75.588l-37.051 2.23c-3.532.218-6.716-2.329-7.257-5.872-1.914-12.672-2.887-25.645-2.887-38.562 0-12.915.973-25.888 2.887-38.562.536-3.543 3.68-6.147 7.257-5.872l37.06 2.23c5.437-27.116 15.951-52.49 31.33-75.581l-27.776-24.622c-2.676-2.376-3.104-6.401-.982-9.282 15.343-20.827 33.69-39.174 54.537-54.537 2.883-2.124 6.91-1.694 9.28.98l24.631 27.782c23.235-15.435 49.591-26.262 76.898-31.591l-2.982-36.737c-.293-3.631 2.275-6.867 5.879-7.403 25.055-3.73 50.92-3.73 75.975 0 3.604.536 6.171 3.773 5.879 7.403l-3.496 43.001c-.306 3.811-3.685 6.649-7.455 6.336-3.811-.311-6.649-3.649-6.338-7.457l2.964-36.463c-19.577-2.383-39.506-2.383-59.083 0l2.96 36.46c.293 3.592-2.225 6.809-5.779 7.39-29.514 4.82-58.06 16.532-82.552 33.868-2.883 2.041-6.838 1.579-9.171-1.056l-24.433-27.562c-15.991 12.436-30.339 26.783-42.762 42.761l27.559 24.431c2.64 2.342 3.095 6.295 1.059 9.176-17.298 24.44-28.613 51.74-33.632 81.142-.599 3.48-3.748 5.955-7.234 5.741l-36.771-2.212c-1.243 9.987-1.869 20.131-1.869 30.237 0 10.108.626 20.251 1.869 30.237l36.758-2.212c3.487-.234 6.64 2.264 7.234 5.741 5.023 29.411 16.343 56.713 33.641 81.149 2.036 2.881 1.581 6.833-1.059 9.176l-27.55 24.424c12.433 15.994 26.78 30.339 42.758 42.76l24.433-27.562c2.333-2.64 6.288-3.099 9.171-1.059 24.447 17.3 51.745 28.616 81.146 33.636 3.478.595 5.951 3.712 5.739 7.234l-2.207 36.769c20.014 2.493 40.501 2.493 60.47 0l-2.212-36.767c-.23-3.815 2.676-7.093 6.491-7.322 3.797-.205 7.09 2.678 7.32 6.491zm148.526-299.418c11.086 0 20.109 9.021 20.109 20.109s-9.023 20.109-20.109 20.109c-2.547 0-4.965-.525-7.21-1.393l-18.814 19.484c-1.306 1.349-3.099 2.113-4.978 2.113h-96.124c-3.82 0-6.919-3.097-6.919-6.919s3.099-6.919 6.919-6.919h93.187l16.348-16.932c-1.555-2.853-2.519-6.071-2.519-9.542.002-11.09 9.024-20.11 20.11-20.11zm-6.27 20.109c0 3.457 2.811 6.27 6.27 6.27 3.46 0 6.27-2.813 6.27-6.27s-2.811-6.27-6.27-6.27c-3.459-.001-6.27 2.812-6.27 6.27zm-68.871-38.308 25.647-36.884c-2.59-3.385-4.192-7.564-4.192-12.146 0-11.088 9.023-20.109 20.109-20.109s20.109 9.021 20.109 20.109-9.023 20.109-20.109 20.109c-1.466 0-2.889-.178-4.267-.477l-28 40.269c-1.293 1.858-3.414 2.969-5.68 2.969h-76.106c-3.82 0-6.919-3.097-6.919-6.919s3.099-6.919 6.919-6.919h72.489zm35.293-49.03c0 3.457 2.811 6.27 6.27 6.27 3.46 0 6.27-2.813 6.27-6.27s-2.811-6.27-6.27-6.27c-3.459-.001-6.27 2.812-6.27 6.27zm24.713 327.907c0 11.088-9.023 20.109-20.109 20.109s-20.109-9.021-20.109-20.109c0-5.421 2.179-10.329 5.68-13.95l-25.469-36.63h-72.488c-3.82 0-6.919-3.097-6.919-6.919s3.099-6.919 6.919-6.919h76.106c2.266 0 4.388 1.11 5.68 2.969l28.866 41.517c.581-.051 1.14-.176 1.734-.176 11.086-.001 20.109 9.02 20.109 20.108zm-13.838 0c0-3.457-2.811-6.27-6.27-6.27-3.46 0-6.27 2.813-6.27 6.27s2.811 6.27 6.27 6.27 6.27-2.813 6.27-6.27zm47.415-85.414c0 11.088-9.023 20.109-20.109 20.109s-20.109-9.021-20.109-20.109c0-4.317 1.396-8.295 3.72-11.575l-15.883-16.448h-93.187c-3.82 0-6.919-3.097-6.919-6.919s3.099-6.919 6.919-6.919h96.124c1.878 0 3.671.764 4.978 2.113l19.58 20.276c1.538-.378 3.122-.636 4.776-.636 11.087-.001 20.11 9.019 20.11 20.108zm-13.838 0c0-3.457-2.811-6.27-6.27-6.27s-6.27 2.813-6.27 6.27 2.811 6.27 6.27 6.27 6.27-2.813 6.27-6.27zm19.829-78.354c0 11.088-9.023 20.109-20.109 20.109-8.646 0-15.972-5.516-18.807-13.192h-151.67v122.314c0 25.061-20.388 45.452-45.452 45.452-18.356 0-34.51-10.757-41.663-27.246-.288.007-.572.009-.856.009-25.064 0-45.452-20.39-45.452-45.452 0-1.2.05-2.401.144-3.597-10.793-2.16-21.014-7.714-29.366-16.07-10.721-10.719-16.622-24.969-16.622-40.127s5.901-29.408 16.622-40.125c.803-.804 1.705-1.509 2.561-2.261-.856-.753-1.758-1.458-2.561-2.261-10.721-10.719-16.622-24.969-16.622-40.125 0-15.158 5.901-29.408 16.622-40.127 8.352-8.356 18.573-13.91 29.366-16.07-.095-1.196-.144-2.396-.144-3.597 0-25.064 20.388-45.454 45.452-45.454.284 0 .568.002.856.009 7.153-16.487 23.307-27.244 41.663-27.244 25.064 0 45.452 20.39 45.452 45.452v122.683h151.672c2.836-7.674 10.161-13.187 18.805-13.187 11.087-.001 20.109 9.019 20.109 20.107zm-343.446-12.232c1.92 1.92 4.101 3.605 6.412 5.126h132.61v-122.499c0-17.433-14.181-31.613-31.613-31.613-11.622 0-21.969 6.194-27.492 15.946 5.599 1.96 10.798 5.014 15.293 9.041.053.047.071.114.122.162 2.578-1.204 5.422-1.926 8.451-1.926 11.086 0 20.109 9.021 20.109 20.106 0 11.088-9.023 20.109-20.109 20.109s-20.109-9.021-20.109-20.109c0-2.998.704-5.818 1.886-8.376-5.739-4.972-13.053-7.719-20.671-7.719-17.433 0-31.613 14.183-31.613 31.616 0 .998.092 1.99.185 2.981 8.197.847 16.04 3.434 23.106 7.669 3.099-1.954 6.739-3.13 10.665-3.13 11.086 0 20.109 9.021 20.109 20.109 0 11.086-9.023 20.106-20.109 20.106s-20.109-9.021-20.109-20.106c0-2.034.394-3.96.958-5.812-6.228-3.431-13.156-5.305-20.384-5.328-10.047.551-19.879 5.142-27.697 12.962-8.104 8.106-12.568 18.881-12.568 30.343 0 11.461 4.465 22.236 12.568 30.342zm60.961-62.506c0 3.457 2.811 6.268 6.27 6.268 3.46 0 6.27-2.811 6.27-6.268s-2.811-6.27-6.27-6.27c-3.459-.001-6.27 2.812-6.27 6.27zm42.821-36.88c3.46 0 6.27-2.813 6.27-6.27s-2.811-6.268-6.27-6.268-6.27 2.811-6.27 6.268 2.811 6.27 6.27 6.27zm35.24 240.849v-122.499h-132.733c-2.275 1.505-4.388 3.225-6.288 5.126-8.104 8.104-12.568 18.879-12.568 30.341s4.464 22.237 12.568 30.343c7.818 7.82 17.65 12.411 27.697 12.962 7.112-.023 13.944-1.827 20.099-5.156-.398-1.575-.673-3.197-.673-4.894 0-11.088 9.023-20.109 20.109-20.109s20.109 9.021 20.109 20.109-9.023 20.109-20.109 20.109c-4.313 0-8.291-1.394-11.57-3.716-6.832 3.926-14.349 6.354-22.2 7.166-.093.991-.185 1.983-.185 2.981 0 17.433 14.181 31.613 31.613 31.613 7.46 0 14.614-2.641 20.297-7.412-.962-2.346-1.512-4.904-1.512-7.593 0-11.088 9.023-20.109 20.109-20.109s20.109 9.021 20.109 20.109-9.023 20.109-20.109 20.109c-3.336 0-6.436-.894-9.209-2.338-4.351 3.759-9.312 6.654-14.657 8.523 5.523 9.755 15.87 15.949 27.492 15.949 17.431 0 31.611-14.181 31.611-31.614zm-35.24-4.358c3.46 0 6.27-2.813 6.27-6.27s-2.811-6.27-6.27-6.27-6.27 2.813-6.27 6.27 2.811 6.27 6.27 6.27zm-36.55-43.148c3.46 0 6.27-2.813 6.27-6.27s-2.811-6.27-6.27-6.27c-3.46 0-6.27 2.813-6.27 6.27 0 1.16.338 2.233.889 3.166.114.135.245.249.35.395.112.155.184.325.282.486 1.15 1.348 2.84 2.223 4.749 2.223zm262.376-81.725c0-3.457-2.811-6.27-6.27-6.27s-6.27 2.813-6.27 6.27 2.811 6.27 6.27 6.27 6.27-2.813 6.27-6.27z"/></svg>