<svg height="65.977" viewBox="0 0 65.899 65.977" width="65.899" xmlns="http://www.w3.org/2000/svg"><circle cx="36.61" cy="29.31" fill="#f00" opacity=".5" r="18.305"/><path d="m9.661 25.157v6.48a1.831 1.831 0 0 0 1.831 1.831h3.661v29.288a7.322 7.322 0 0 0 14.644 0v-20.136a9.153 9.153 0 0 1 9.153-9.153v1.833a7.322 7.322 0 0 0 -7.322 7.322v16.473a7.322 7.322 0 0 0 7.322 7.322h7.322a1.831 1.831 0 0 0 1.828 1.83h1.007a7.322 7.322 0 0 0 6.315 3.661c6.791 0 9.738.6 12.5-2.142a7.468 7.468 0 0 0 1.831-3.35 1.831 1.831 0 1 0 0-3.661 7.322 7.322 0 0 0 -7.011-5.492c-6.791 0-9.738-.6-12.5 2.142-1.831 1.739-.384 1.519-2.142 1.519a1.831 1.831 0 0 0 -1.831 1.831h-7.32a3.661 3.661 0 0 1 -3.661-3.661v-16.474a3.661 3.661 0 0 1 3.661-3.661v5.492a1.831 1.831 0 0 0 1.831 1.831h29.288a1.831 1.831 0 0 0 1.832-1.831v-36.61a1.831 1.831 0 0 0 -1.832-1.831h-29.288a1.831 1.831 0 0 0 -1.831 1.831v21.966a12.814 12.814 0 0 0 -12.813 12.813v20.136a3.661 3.661 0 0 1 -7.322 0v-29.288h3.661a1.831 1.831 0 0 0 1.831-1.831v-6.48a10.983 10.983 0 1 0 -14.644 0zm45.763 35.768h7.322a3.661 3.661 0 1 1 0 7.322h-7.322a3.661 3.661 0 1 1 0-7.322zm12.813-18.305h-9.152a5.492 5.492 0 0 1 -5.492-5.492v-21.965a5.492 5.492 0 0 1 3.661-5.163v27.129a1.831 1.831 0 0 0 3.661 0v-27.458h7.322zm-25.627-32.949h9.153a9.006 9.006 0 0 0 -1.831 5.492c0 23.8-.6 24.181 1.831 27.458h-9.153v-3.662h1.831a1.831 1.831 0 0 0 0-3.661h-1.831v-1.83h1.831a1.831 1.831 0 0 0 0-3.661h-1.831zm-21.966 20.136h-7.322v-3.661h7.322zm-3.661-20.136a7.322 7.322 0 0 1 4.833 12.814h-3v-3.661a1.831 1.831 0 1 0 -3.661 0v3.661h-3a7.322 7.322 0 0 1 4.828-12.814z" fill="#020202" transform="translate(-6 -5.988)"/></svg>