<svg height="14.445" viewBox="0 0 14.285 14.445" width="14.285" xmlns="http://www.w3.org/2000/svg"><path d="m34.308 13.88h-6.425a.475.475 0 0 0 -.169.03.511.511 0 0 0 -.324.324.475.475 0 0 0 -.03.169v9.942a.523.523 0 0 0 .523.523h6.425a.523.523 0 0 0 .523-.523v-9.945a.523.523 0 0 0 -.523-.52z" fill="#263d66" transform="translate(-20.546 -10.423)"/><path d="m32.884 34h-1.024v1.245h1.245v-1.245z" fill="#a2c5d3" transform="translate(-23.925 -25.533)"/><path d="m34.46 20.623v.125a.631.631 0 0 1 -.127.374.631.631 0 0 1 .127.374v.125a.623.623 0 0 1 -.623.623h-.5a.25.25 0 0 1 -.249-.249v-1.746a.25.25 0 0 1 .251-.249h.5a.623.623 0 0 1 .621.623z" fill="#e5dfdc" transform="translate(-24.849 -15.019)"/><path d="m41.332 20.251v1.992h-.5v-1.243l-.3.4a.259.259 0 0 1 -.4 0l-.2-.261-.1-.137v1.245h-.5v-1.996a.249.249 0 0 1 .448-.149l.192.254.356.476.548-.73a.249.249 0 0 1 .448.149z" fill="#e5dfdc" transform="translate(-29.543 -15.021)"/><path d="m48.34 20h.5v2.241h-.5z" fill="#e5dfdc" transform="translate(-36.301 -15.019)"/><g fill="#a2c5d3"><path d="m12.148.954v2.5h-3.13a.356.356 0 0 0 -.007-.072 2.989 2.989 0 0 0 -2.937-2.428 3.068 3.068 0 0 0 -.456.035 2.992 2.992 0 0 0 -2.48 2.4.356.356 0 0 0 .349.426h3.357a.475.475 0 0 0 -.03.169v6.978h-5.863a.952.952 0 0 1 -.951-.962v-9.046a.952.952 0 0 1 .951-.954h10.244a.952.952 0 0 1 .954.954z"/><path d="m48.622 42h-.762v1.245h1.245v-1.245z" transform="translate(-35.941 -31.54)"/><path d="m48.689 34h-.829v1.245h1.245v-1.245z" transform="translate(-35.941 -25.533)"/><path d="m32.2 50c-.117 0-.229.01-.339.012v-.012z" transform="translate(-23.925 -37.548)"/><path d="m39.86 50h1.245v1.245h-1.245z" transform="translate(-29.933 -37.548)"/><path d="m33.105 50v1.245h-1.245v-1.233c.11 0 .222-.007.339-.012z" transform="translate(-23.925 -37.548)"/><path d="m47.86 50h1.245v1.245h-1.245z" transform="translate(-35.941 -37.548)"/></g><path d="m48.34 20h.5v2.241h-.5z" fill="#3a0e33" transform="translate(-36.301 -15.019)"/><path d="m39.86 42h1.245v1.245h-1.245z" fill="#a2c5d3" transform="translate(-29.933 -31.54)"/><path d="m39.86 34h1.245v1.245h-1.245z" fill="#a2c5d3" transform="translate(-29.933 -25.533)"/><path d="m41.332 20.251v1.992h-.5v-1.243l-.3.4a.259.259 0 0 1 -.4 0l-.2-.261-.1-.137v1.245h-.5v-1.996a.249.249 0 0 1 .448-.149l.192.254.356.476.548-.73a.249.249 0 0 1 .448.149z" fill="#3a0e33" transform="translate(-29.543 -15.021)"/><path d="m36.431 18h-4.663a.407.407 0 0 0 -.408.408v2.421a.407.407 0 0 0 .408.408h4.662a.407.407 0 0 0 .408-.408v-2.421a.407.407 0 0 0 -.407-.408zm-3.27 1.245a.631.631 0 0 1 -.127.374.631.631 0 0 1 .127.374v.125a.623.623 0 0 1 -.623.623h-.5a.25.25 0 0 1 -.249-.249v-1.745a.25.25 0 0 1 .249-.249h.5a.623.623 0 0 1 .623.623zm2.179 1.494h-.5v-1.245l-.3.4a.259.259 0 0 1 -.4 0l-.2-.261-.1-.137v1.245h-.5v-1.994a.249.249 0 0 1 .46-.147l.192.254.356.476.548-.73a.249.249 0 0 1 .448.149zm.747 0h-.5v-2.239h.5z" fill="#e5dfdc" transform="translate(-23.55 -13.517)"/><path d="m34.46 20.623a.623.623 0 0 0 -.623-.623h-.5a.25.25 0 0 0 -.249.249v1.743a.25.25 0 0 0 .249.249h.5a.623.623 0 0 0 .623-.623v-.125a.631.631 0 0 0 -.127-.374.631.631 0 0 0 .127-.374zm-.5 1a.123.123 0 0 1 -.125.125h-.249v-.378h.249a.123.123 0 0 1 .125.125zm0-.872a.123.123 0 0 1 -.125.125h-.249v-.376h.249a.123.123 0 0 1 .125.125z" fill="#3a0e33" transform="translate(-24.849 -15.019)"/><path d="m31.86 42h1.245v1.245h-1.245z" fill="#a2c5d3" transform="translate(-23.925 -31.54)"/><path d="m35.464 25.625v.125a.123.123 0 0 1 -.125.125h-.249v-.375h.249a.123.123 0 0 1 .125.125z" fill="#f4edea" transform="translate(-26.351 -19.149)"/><path d="m35.464 22.125v.125a.123.123 0 0 1 -.125.125h-.249v-.375h.249a.123.123 0 0 1 .125.125z" fill="#f4edea" transform="translate(-26.351 -16.521)"/><path d="m26.122 12.032a.511.511 0 0 0 -.324.324h-.441a.246.246 0 0 0 .067-.237l-.184-.74a1.39 1.39 0 0 1 .882.653z" fill="#f7d300" transform="translate(-18.954 -8.546)"/><path d="m21.691 5.351a.248.248 0 0 1 -.107.473.275.275 0 0 1 -.107-.022l-.2-.095.223.893a1.168 1.168 0 0 0 -.134-.027 1.148 1.148 0 0 0 -.209-.017 1.038 1.038 0 0 0 -.177.012l-.165-.668-.092.154a.25.25 0 0 1 -.428-.257l.4-.67a.2.2 0 0 1 .047-.055.239.239 0 0 1 .072-.042l.025-.007.03-.007h.032.042a.266.266 0 0 1 .067.02s0 0 0 0z" fill="#3a0e33" transform="translate(-15.214 -3.762)"/><path d="m23.788 12.221h-.349a.221.221 0 0 1 -.067-.117l-.222-.892a1.038 1.038 0 0 1 .177-.012 1.148 1.148 0 0 1 .209.017 1.169 1.169 0 0 1 .134.027l.184.74a.246.246 0 0 1 -.066.237z" fill="#3a0e33" transform="translate(-17.385 -8.411)"/><path d="m19.842 12.259h-1.482a1.423 1.423 0 0 1 1.193-1.009l.222.892a.221.221 0 0 0 .067.117z" fill="#f7d300" transform="translate(-13.788 -8.448)"/><path d="m18.46 6.333h-1.681a.475.475 0 0 0 -.169.03 1.39 1.39 0 0 0 -.882-.652l-.222-.889.2.095a.275.275 0 0 0 .107.022.248.248 0 0 0 .107-.473l-.672-.319s0 0 0 0a.266.266 0 0 0 -.067-.02h-.042-.032l-.03.007-.025.007a.239.239 0 0 0 -.072.042.2.2 0 0 0 -.047.055l-.4.67a.25.25 0 0 0 .428.257l.092-.154.164.665a1.423 1.423 0 0 0 -1.193 1.009h-1.095a.356.356 0 0 1 -.349-.426 2.992 2.992 0 0 1 2.48-2.4 3.068 3.068 0 0 1 .456-.035 2.989 2.989 0 0 1 2.936 2.431.356.356 0 0 1 .007.072z" fill="#f4edea" transform="translate(-9.442 -2.876)"/><path d="m6.814 36.03v1.985h-5.863a.952.952 0 0 1 -.951-.954v-.842a40.441 40.441 0 0 0 6.814-.189z" fill="#8bb7c1" transform="translate(0 -27.057)"/><path d="m50.954 21.238h-.139c-.017-1.153-.07-2.348-.115-3.238h.254a.407.407 0 0 1 .408.408v2.421a.407.407 0 0 1 -.408.409z" fill="#e5dfdc" transform="translate(-38.073 -13.517)"/><path d="m49.105 42v1.245h-1.245v-.045a1.4 1.4 0 0 0 .745-1.026c0-.055.012-.11.017-.169z" fill="#8bb7c1" transform="translate(-35.941 -31.54)"/><path d="m31.718 22.875h-1.245v1.245h1.245zm.747 1.245h1.245v-1.245h-1.245zm1.843.747h-6.425a.523.523 0 0 1 -.523-.523v-1.451c.281.007.672.01 1.121 0v1.233h1.245v-1.251h-.907a8.483 8.483 0 0 0 3.646-.8v.05h1.245v-1.242h-.483c.02-.224.035-.476.045-.747h.438v-1.245h-.416c0-.244 0-.5-.007-.747h.139a.407.407 0 0 0 .408-.408v-2.422a.407.407 0 0 0 -.408-.408h-.254c-.025-.423-.045-.78-.06-1.026h1.2a.523.523 0 0 1 .523.523v9.942a.523.523 0 0 1 -.527.523z" fill="#183051" transform="translate(-20.546 -10.423)"/><path d="m51.122 34h.416v1.245h-.438c.017-.383.022-.804.022-1.245z" fill="#8bb7c1" transform="translate(-38.374 -25.533)"/><path d="m39.86 50h1.245v1.245h-1.245z" fill="#8bb7c1" transform="translate(-29.933 -37.548)"/><path d="m31.86 51.245v-1.233c.11 0 .222-.007.339-.012h.907v1.245z" fill="#8bb7c1" transform="translate(-23.925 -37.548)"/><path d="m47.86 50h1.245v1.245h-1.245z" fill="#8bb7c1" transform="translate(-35.941 -37.548)"/><path d="m43.328.954v2.5h-1.691c-.012-1.367-.072-2.672-.117-3.454h.854a.952.952 0 0 1 .954.954z" fill="#8bb7c1" transform="translate(-31.18)"/></svg>