<svg enable-background="new 0 0 512 512" viewBox="0 0 512 512" xmlns="http://www.w3.org/2000/svg"><path d="m471.706 250.176c-6.794-10.398-18.078-27.666-18.433-33.32 17.599-47.342 12.72-92.836-14.127-131.598-35.318-50.994-107.202-85.258-178.873-85.258-.049 0-.098 0-.146.002-54.627.801-104.86 15.943-145.271 43.791-37.944 26.146-66.166 62.396-81.616 104.83-15.298 42.016-17.055 87.354-5.08 131.113 12.743 46.568 40.936 89.74 81.501 124.818.034.041 3.377 4.199-2.368 25.367-4.003 14.752-10.916 32.158-16.47 46.143-3.625 9.131-6.756 17.014-8.629 22.908-.965 3.041-.423 6.359 1.461 8.932 1.883 2.574 4.881 4.096 8.07 4.096h209.363c5.176 0 12.32-2.404 16.966-13.865 2.198-5.426 3.671-12.117 5.23-19.201 2.291-10.414 6.125-27.84 11.859-27.84.211 0 .437.014.676.039l8.498 2.133c32.196 8.09 53.466 13.434 68.38 13.432 16.881-.002 27.336-6.967 32.903-21.92 4.548-12.217 5.972-29.893 8.127-56.648l.545-6.742c.52-6.391-3.484-11.617-11.9-15.533-3.526-1.643-7.836-3.156-12.198-4.613 7.7-.906 15.552-2.305 21.475-5.621 8.45-4.73 6.999-16.061 5.463-28.055-.065-.516-.138-1.08-.203-1.605 2.349-2.44 8.424-6.611 12.244-9.232 12.092-8.303 22.535-15.475 22.535-25.98 0-9.513-7.593-21.616-19.982-40.573zm-13.874 50.062c-11.048 7.586-19.774 13.576-21.011 22.314-.27 1.91-.044 3.678.452 7.551.255 1.992.809 6.315.965 9.459-4.605 1.277-11.198 1.932-16.756 2.482-5.662.563-11.01 1.092-15.378 2.232-12.39 3.234-13.384 11.412-13.236 14.785.494 11.082 13.217 15.281 27.948 20.145 3.889 1.285 9.808 3.238 13.181 4.789l-.205 2.527c-1.948 24.188-3.357 41.662-6.936 51.277-2.335 6.273-4.819 8.896-14.161 8.896-12.439.002-32.754-5.103-63.505-12.828l-9.031-2.266c-.289-.074-.581-.133-.876-.18-1.397-.219-2.789-.33-4.14-.33-21.813 0-27.349 25.166-31.393 43.541-1.258 5.719-3.084 14.02-4.809 17.365h-192.91c1.047-2.68 2.185-5.547 3.38-8.553 17.678-44.516 29.887-79.701 13.361-93.99-73.15-63.264-100.257-152.924-70.739-233.992 29.891-82.089 109.706-133.991 208.313-135.462 65.381.023 130.62 30.818 162.359 76.645 23.058 33.293 27.076 72.637 11.622 113.777-4.341 11.547 5.014 26.787 20.637 50.693 6.093 9.324 15.093 23.098 16.534 28.584-2.287 2.727-9.308 7.547-13.666 10.539z"/><path d="m370.467 111.91c-7.11-43.488-42.503-69.97-95.082-71.508-.097-.004-.192-.003-.289-.004-1.52-.042-3.048-.07-4.596-.07-34.664 0-72.313 10.467-106.01 29.475-36.839 20.779-64.952 49.361-81.301 82.652-14.375 29.277-19.06 60.924-13.922 94.066 5.683 36.664 23.445 74.512 52.793 112.492 3.115 4.031 6.956 4.635 8.968 4.635 3.309 0 9.204-1.441 11.501-11.084.608-2.557 1.116-5.795 1.76-9.897 3.183-20.295 9.105-58.07 37.236-73.848 13.844-7.766 31.854-15.676 50.923-24.051 17.863-7.846 36.899-16.209 54.974-25.555.374-.165.735-.355 1.086-.564 48.639-25.309 89.951-57.835 81.959-106.739zm-22.686 30.262c-3.869-4.816-8.932-8.457-14.888-10.436-12.196-4.053-25.3-.26-34.196 9.9-3.639 4.156-3.22 10.473.935 14.111 4.153 3.637 10.471 3.221 14.111-.936 3.552-4.057 8.355-5.588 12.844-4.096 4.351 1.445 7.488 5.309 8.79 10.628-5.096 5.698-11.42 11.343-19.017 16.999-10.12 7.536-21.86 14.545-34.302 21.122-14.689-3.862-27.33-12.104-33.493-22.003-4.21-6.762-5.283-13.885-3.282-21.779 1.357-5.354-1.883-10.793-7.236-12.15-5.349-1.355-10.792 1.883-12.15 7.236-2.426 9.568-2.01 19.031 1.139 27.852-7.408 2.656-21.624 4.24-31.704-5.832-3.904-3.902-10.237-3.9-14.142.006-3.904 3.906-3.902 10.238.005 14.141 11.145 11.139 24.365 13.648 34.019 13.648 2.686 0 5.098-.193 7.109-.451 4.722-.604 10.281-2.005 15.183-4.285 5.46 6.08 12.42 11.375 20.39 15.577-11.268 5.273-22.63 10.265-33.489 15.034-13.862 6.088-27.17 11.938-38.986 17.768.081-1.005.257-2.05.541-3.1 1.32-4.887 4.425-8.588 7.911-9.428 5.369-1.295 8.671-6.697 7.377-12.066-1.296-5.369-6.693-8.67-12.066-7.377-10.649 2.568-19.282 11.633-22.529 23.654-1.753 6.487-1.667 12.955.057 18.587-28.061 18.919-36.748 53.523-40.688 75.964-31.087-45.667-43.59-90.077-37.082-130.92 9.745 9.079 20.325 16.217 33.106 18.725 1.356 5.128.757 9.701-1.811 12.762-3.551 4.229-3 10.537 1.23 14.088 1.873 1.572 4.154 2.34 6.424 2.34 2.853 0 5.687-1.215 7.664-3.57 5.834-6.949 8.154-15.975 6.867-25.558 3.832-.663 7.842-1.692 12.059-3.149 5.221-1.805 7.99-7.498 6.188-12.717-1.804-5.221-7.498-7.99-12.717-6.188-6.651 2.297-12.473 3.229-17.872 2.867-.109-.009-.218-.024-.327-.029-12.264-.944-22.375-8.604-35.119-22.21 1.833-5.282 3.99-10.495 6.511-15.628 8.558-17.429 20.43-32.724 34.339-45.789 3.462-.677 9.073-.6 14.679.877 6.5 1.713 9.566 4.381 10.042 5.756 1.43 4.139 5.305 6.738 9.45 6.738 1.084 0 2.186-.178 3.267-.553 5.221-1.803 7.99-7.496 6.186-12.717-2.818-8.157-10.426-14.458-21.539-17.902 32.074-22.229 70.064-34.847 102.936-37.012-.44 3.788-.416 7.915.1 12.344.301 2.584.767 5.246 1.373 7.941-14.33-1.749-28.035 2.766-37.473 9.896-4.406 3.33-5.279 9.602-1.95 14.008 1.966 2.602 4.958 3.973 7.986 3.973 2.1 0 4.217-.66 6.021-2.023 8.109-6.126 21.409-9.077 33.724-2.627 4.925 9.988 11.068 18.477 17.056 22.688 1.749 1.229 3.756 1.82 5.743 1.82 3.145 0 6.242-1.48 8.189-4.25 3.176-4.518 2.089-10.756-2.429-13.932-5.886-4.139-16.428-23.098-18.374-39.809-.458-3.932-.353-7.386.259-9.973 24.249 1.882 63.02 11.69 70.003 54.41 1.539 9.417.588 18.359-2.952 27.035z"/><path d="m185.95 155.532-.047-.163c-1.576-5.293-7.137-8.271-12.43-6.691-5.293 1.576-8.294 7.182-6.717 12.475l.098.324c1.32 4.293 5.262 7.033 9.527 7.033.979 0 1.977-.145 2.962-.449 5.278-1.623 8.231-7.252 6.607-12.529z"/><path d="m218.212 110.854c-5.513-.102-10.053 4.359-10.116 9.881l-.007.613c0 5.523 4.478 10 10 10s10-4.477 10-10l.005-.379c.064-5.522-4.36-10.051-9.882-10.115z"/><path d="m120.567 250.537c-1.737-5.244-7.402-8.084-12.637-6.348l-.434.148c-5.252 1.709-8.124 7.352-6.416 12.604 1.375 4.225 5.293 6.91 9.508 6.91 1.024 0 2.068-.16 3.096-.494.163-.053.327-.109.56-.191 5.226-1.746 8.058-7.394 6.323-12.629z"/><path d="m421.276 205.631c-8.227-4.914-19.625-6.604-31.282-4.633-5.547.938-19.086 4.152-24.98 13.725-2.896 4.701-1.452 10.893 3.251 13.789 1.643 1.012 3.461 1.494 5.255 1.494 3.342 0 6.599-1.676 8.483-4.734 2.728-3.613 19.613-8.088 29.017-2.471 4.74 2.832 10.881 1.283 13.713-3.457 2.832-4.742 1.285-10.881-3.457-13.713z"/></svg>