<svg height="25.637" viewBox="0 0 24.415 25.637" width="24.415" xmlns="http://www.w3.org/2000/svg"><path d="m38.766 1v9.77h-1.22v.814l-2.446-.814h-6.1v-9.77z" fill="#e6e9ed" transform="translate(-17.199 -.593)"/><path d="m36.849 6a2.849 2.849 0 1 1 -2.849 2.849 2.852 2.852 0 0 1 2.849-2.849z" transform="translate(-20.164 -3.558)"/><path d="m20.1 8.01v5.29h-2.845l-2.035.814v-.814h-1.22v-5.29z" fill="#ccd1d9" transform="translate(-8.303 -4.75)"/><path d="m39.7 8.849a2.849 2.849 0 1 0 -2.851 2.851 2.852 2.852 0 0 0 2.851-2.851z" fill="#ed5565" transform="translate(-20.164 -3.558)"/><path d="m15.257 52.061v1.6.009l-1.627 2.03-1.63-2.036v-1.6a3.658 3.658 0 0 0 3.255 0z" fill="#eac6bb" transform="translate(-7.118 -30.876)"/><path d="m54.067 58.035v.814h-4.067l.812-2.849h1.221a2.033 2.033 0 0 1 2.034 2.035z" fill="#e6e9ed" transform="translate(-29.652 -33.212)"/><path d="m53.219 56h-1.219a2.033 2.033 0 0 1 2.033 2.035v.814h1.222v-.814a2.033 2.033 0 0 0 -2.036-2.035z" fill="#ccd1d9" transform="translate(-30.838 -33.212)"/><path d="m39.253 56 .814 2.849h-4.067v-.814a2.035 2.035 0 0 1 2.033-2.035z" fill="#e6e9ed" transform="translate(-21.349 -33.212)"/><path d="m7 32.221a1.219 1.219 0 0 1 1.223-1.221v2.442a1.219 1.219 0 0 1 -1.223 1.22z" fill="#e9573f" transform="translate(-4.153 -18.385)"/><path d="m45.626 52.443a3.65 3.65 0 0 0 1.628-.382v1.6l-.814.407-.814-.407-.814.407-.812-.405v-1.6a3.645 3.645 0 0 0 1.626.38z" fill="#87bcf4" transform="translate(-26.094 -30.875)"/><path d="m46.323 40.04v1.611a3.662 3.662 0 0 1 -7.325 0v-1.611z" fill="#eac6bb" transform="translate(-23.128 -23.746)"/><path d="m49.548 40.04v1.611a3.64 3.64 0 0 1 -3.048 3.606 3.7 3.7 0 0 0 .611.057 3.664 3.664 0 0 0 3.662-3.662v-1.612z" fill="#d3b1a9" transform="translate(-27.575 -23.746)"/><path d="m17.327 32.283v3.463a2.841 2.841 0 0 0 -1.221-2.336 2.83 2.83 0 0 0 -1.628-.509v-.009h-3.255a1.219 1.219 0 0 1 -1.223-1.224v-2.441a4.2 4.2 0 0 1 3.052-1.217 4.272 4.272 0 0 1 4.275 4.273z" fill="#fc6e51" transform="translate(-5.932 -16.612)"/><path d="m16.582 28.01a4.8 4.8 0 0 0 -.631.046 4.27 4.27 0 0 1 3.682 4.227v1.123a2.841 2.841 0 0 1 1.221 2.336v-3.459a4.272 4.272 0 0 0 -4.273-4.273z" fill="#e9573f" transform="translate(-9.46 -16.612)"/><path d="m47.253 56-.814 2.849h-1.627l-.812-2.849.814.407.812-.407.814.407z" fill="#5d9cec" transform="translate(-26.094 -33.212)"/><path d="m13.768 58.849h-9.768v-.814a2.033 2.033 0 0 1 2.037-2.035h1.22l1.628 2.035 1.624-2.026v-.009h1.221a2.035 2.035 0 0 1 2.035 2.035z" fill="#48cfad" transform="translate(-2.373 -33.212)"/><path d="m21.223 56h-1.223a2.036 2.036 0 0 1 2.033 2.035v.814h1.222v-.814a2.035 2.035 0 0 0 -2.032-2.035z" fill="#37bc9b" transform="translate(-11.863 -33.212)"/><path d="m39.822 30h5.7a.816.816 0 0 1 .814.814v3.272h-7.328v-3.272a.816.816 0 0 1 .814-.814z" fill="#e6e9ed" transform="translate(-23.134 -17.792)"/><path d="m53.227 30h-1.222a.816.816 0 0 1 .814.814v3.272h1.222v-3.272a.816.816 0 0 0 -.814-.814z" fill="#ccd1d9" transform="translate(-30.842 -17.792)"/><path d="m14.327 38.742v1.107a3.662 3.662 0 0 1 -7.325 0v-1.628a1.219 1.219 0 0 0 1.221-1.221 1.219 1.219 0 0 0 1.221 1.221h3.256v.009a2.83 2.83 0 0 1 1.628.509z" fill="#eac6bb" transform="translate(-4.153 -21.944)"/><path d="m17.552 40.1v1.588a3.64 3.64 0 0 1 -3.052 3.603 3.7 3.7 0 0 0 .611.057 3.664 3.664 0 0 0 3.662-3.662v-1.111a2.815 2.815 0 0 0 -1.221-.475z" fill="#d3b1a9" transform="translate(-8.599 -23.781)"/><g fill="#ed5565"><path d="m47.4 34.449a.407.407 0 0 1 -.407-.407v-1.632a.407.407 0 1 1 .814 0v1.633a.407.407 0 0 1 -.407.406z" transform="translate(-27.871 -18.98)"/><path d="m47.029 34.835h-1.629a.407.407 0 0 1 0-.814h1.629a.407.407 0 1 1 0 .814z" transform="translate(-26.684 -20.177)"/><path d="m36.255 11.512a3.255 3.255 0 1 1 3.255-3.255 3.259 3.259 0 0 1 -3.255 3.255zm0-5.7a2.442 2.442 0 1 0 2.445 2.444 2.444 2.444 0 0 0 -2.445-2.441z" transform="translate(-19.571 -2.966)"/></g><path d="m40.407 12.254a.407.407 0 0 1 -.407-.406v-2.442a.407.407 0 1 1 .814 0v2.442a.407.407 0 0 1 -.407.406z" fill="#e6e9ed" transform="translate(-23.723 -5.337)"/><path d="m39.849 12.813h-2.442a.407.407 0 1 1 0-.814h2.442a.407.407 0 0 1 0 .814z" fill="#e6e9ed" transform="translate(-21.944 -7.116)"/></svg>