<svg id="Layer_1" enable-background="new 0 0 512 512" height="512" viewBox="0 0 512 512" width="512" xmlns="http://www.w3.org/2000/svg"><path d="m445.117 83.032h-378.234c-36.878 0-66.883 30.004-66.883 66.882v212.171c0 36.878 30.005 66.883 66.883 66.883h378.234c36.878 0 66.883-30.005 66.883-66.883v-212.171c0-36.878-30.005-66.882-66.883-66.882zm-378.234 13.837h378.234c29.248 0 53.045 23.795 53.045 53.045v41.511h-484.324v-41.511c0-29.25 23.797-53.045 53.045-53.045zm378.234 318.262h-378.234c-29.248 0-53.045-23.795-53.045-53.045v-156.822h484.324v156.822c0 29.25-23.797 53.045-53.045 53.045zm9.617-89.94c0 3.822-3.099 6.919-6.919 6.919h-91.491c-3.82 0-6.919-3.097-6.919-6.919s3.099-6.919 6.919-6.919h91.491c3.82.001 6.919 3.097 6.919 6.919z"/></svg>