<?xml version="1.0" encoding="UTF-8"?>
<svg xmlns="http://www.w3.org/2000/svg" viewBox="0 0 96 96" width="512" height="512"><g id="Layer_46" data-name="Layer 46"><path d="M79,85.5a3,3,0,0,0,3-3V2.5a1,1,0,0,0-1-1H16.82A2.86,2.86,0,0,0,14,4.35v78s0,.07,0,.1,0,.13,0,.2v8.08a3.79,3.79,0,0,0,3.79,3.79H79a3,3,0,0,0,2.29-1.07A3,3,0,0,0,82,91a3.1,3.1,0,0,0-3.08-2.49H78.8v-3Zm1-6H20V3.5H80ZM16.82,3.5H18v76h-.87a3,3,0,0,0-1.13.22V4.35A.86.86,0,0,1,16.82,3.5ZM80,91.32a1,1,0,0,1-.22.82,1,1,0,0,1-.76.36H17.75A1.79,1.79,0,0,1,16,90.71V82.63a1.14,1.14,0,0,1,1.13-1.13H80v1a1,1,0,0,1-1,1H19a1,1,0,0,0-1,1v5a1,1,0,0,0,1,1h60A1.09,1.09,0,0,1,80,91.32ZM76.8,88.5H20v-3H76.8ZM28.1,35.18a5.93,5.93,0,0,0,2,.33,6,6,0,0,0,3.16-.89,6.15,6.15,0,0,0,5.08.57,6,6,0,0,0,3.75-7.62L38.9,18.32a6,6,0,0,0-11.36,0l-3.16,9.25a6,6,0,0,0,.3,4.58A5.92,5.92,0,0,0,28.1,35.18Zm-1.82-7L29.43,19A4,4,0,0,1,37,19l3.16,9.25a4,4,0,0,1-2.51,5.08,4.1,4.1,0,0,1-3.8-.69,1,1,0,0,0-1.26,0,4,4,0,0,1-3.84.67,4,4,0,0,1-2.47-5.07Zm3.46,2.39A1,1,0,0,0,31,30l.81-2.38h2.8L35.43,30a1,1,0,0,0,.94.67.86.86,0,0,0,.32-.05,1,1,0,0,0,.63-1.27l-3.16-9.25a1,1,0,0,0-.94-.67,1,1,0,0,0-.95.67l-3.15,9.25A1,1,0,0,0,29.74,30.61Zm4.19-5H32.5l.72-2.1ZM55,44.26A6,6,0,0,0,57.38,49,6,6,0,0,0,61,59.82a5.81,5.81,0,0,0,2-.36,15,15,0,0,0,2.31-1,15.55,15.55,0,0,0,2.28,1,5.87,5.87,0,0,0,2,.36A6,6,0,0,0,73.24,49a6,6,0,0,0,2.34-4.76,6,6,0,0,0-6-6H61A6,6,0,0,0,55,44.26Zm18.55,0a4,4,0,0,1-2.17,3.57.93.93,0,0,0-.5.61c0,.17-.11.34-.16.51a1,1,0,0,0,.53,1.22,4,4,0,0,1-1.65,7.65,3.88,3.88,0,0,1-1.35-.24,13,13,0,0,1-2.44-1.17,1,1,0,0,0-1,0,13.86,13.86,0,0,1-2.46,1.17,3.92,3.92,0,0,1-1.35.24,4,4,0,0,1-1.66-7.64,1,1,0,0,0,.53-1.24l0-.1c0-.11-.07-.23-.1-.34a1,1,0,0,0-.52-.67A4,4,0,0,1,61,40.26h8.55A4,4,0,0,1,73.58,44.26ZM61,43.26h8.55a1,1,0,0,1,0,2H68.42a10.64,10.64,0,0,1-1.83,5.4A8.64,8.64,0,0,0,70,52.87a1,1,0,0,1-.34,2,1,1,0,0,1-.34-.06,10.79,10.79,0,0,1-4-2.55,10.72,10.72,0,0,1-4,2.55,1.06,1.06,0,0,1-.34.06,1,1,0,0,1-.34-2A8.68,8.68,0,0,0,64,50.66a11,11,0,0,1-1.36-2.74,1,1,0,0,1,1.91-.61,9.26,9.26,0,0,0,.71,1.61,8.72,8.72,0,0,0,1.1-3.66H61a1,1,0,0,1,0-2Zm-17.9,2.82.09.1-6.67,0V42.14a3,3,0,1,0-6,0v4.08a5.94,5.94,0,0,0,5.94,5.94H43.2l-.08.08a3,3,0,0,0,0,4.24,2.94,2.94,0,0,0,2.12.88,3,3,0,0,0,2.12-.88L54,49.87a1,1,0,0,0,0-1.42l-6.61-6.61a3.08,3.08,0,0,0-4.24,0h0A3,3,0,0,0,43.13,46.08Zm1.41-2.83a1,1,0,0,1,1.41,0l5.91,5.91L46,55.07a1,1,0,0,1-1.41,0,1,1,0,0,1,0-1.42l1.78-1.78a1,1,0,0,0-.7-1.71H36.49a4,4,0,0,1-3.94-3.94V42.14a1,1,0,0,1,2,0v4.08a1.94,1.94,0,0,0,1.94,1.94h9.13a1,1,0,0,0,.7-1.71l-1.78-1.78A1,1,0,0,1,44.54,43.25ZM51,32.36a3.08,3.08,0,0,0,4.24,0h0a3,3,0,0,0,0-4.24L55.18,28,61.85,28v4.08a3,3,0,0,0,6,0V28A6,6,0,0,0,61.91,22H55.2l.07-.08a3,3,0,0,0,0-4.24,3.08,3.08,0,0,0-4.24,0l-6.61,6.61a1,1,0,0,0,0,1.42Zm1.41-13.23a1,1,0,0,1,1.42,0,1,1,0,0,1,0,1.42l-1.79,1.78a1,1,0,0,0-.21,1.09,1,1,0,0,0,.92.62h9.13A4,4,0,0,1,65.85,28v4.08a1,1,0,0,1-2,0V28A1.94,1.94,0,0,0,61.91,26H52.78a1,1,0,0,0-.92.62,1,1,0,0,0,.21,1.09l1.79,1.78a1,1,0,0,1,0,1.42h0a1,1,0,0,1-1.42,0L46.54,25Z"/></g></svg>
