<svg height="29.749" viewBox="0 0 25.689 29.749" width="25.689" xmlns="http://www.w3.org/2000/svg"><circle cx="12.975" cy="24.823" fill="#7fdbd5" r=".917"/><circle cx="16.817" cy="25.876" fill="#38648c" r=".873"/><circle cx="14.111" cy="20.824" fill="#38648c" r=".873"/><circle cx="17.477" cy="22.452" fill="#7fdbd5" r="1.1"/><circle cx="14.11" cy="28.57" fill="#f28b74" r="1.178"/><path d="m129.549 68.445-3.992 3.555 5.057 5.679 3.992-3.555a3.8 3.8 0 0 0 .311-5.368 3.8 3.8 0 0 0 -5.368-.311z" fill="#7fdbd5" transform="translate(-120.292 -63.562)"/><path d="m36.21 148.787 3.992-3.555 5.057 5.679-3.992 3.555a3.8 3.8 0 0 1 -5.368-.311 3.8 3.8 0 0 1 .311-5.368z" fill="#287d99" transform="translate(-34.937 -136.794)"/><path d="m49.775 68.764a3.794 3.794 0 0 0 -3.008-1.269 3.792 3.792 0 0 0 .408 3.13l1.259 2.017a.822.822 0 0 1 -.169 1.065 35.639 35.639 0 0 1 -6.944 4.738c-2.41.987-4.515-1.51-4.175-3.525l-.681.606a3.8 3.8 0 1 0 5.015 5.717l7.984-7.11a3.8 3.8 0 0 0 .311-5.368z" opacity=".1" transform="translate(-35.15 -63.57)"/><path d="m249.317 5.816 2.831 4.534 6.45-4.027-2.831-4.534a3.8 3.8 0 0 0 -5.238-1.212 3.8 3.8 0 0 0 -1.212 5.239z" fill="#76b7eb" transform="translate(-236.317)"/><path d="m310.225 117.39-2.831-4.534 6.45-4.027 2.831 4.534a3.8 3.8 0 0 1 -1.212 5.239 3.8 3.8 0 0 1 -5.238-1.212z" fill="#d1eff2" transform="translate(-291.563 -102.506)"/><path d="m260.217 25.267a3.832 3.832 0 0 0 .479-.353c-4.52-.664-10.413-11.454-10.147-15.177l-.02.012a3.8 3.8 0 0 0 -1.212 5.239l5.661 9.069a3.8 3.8 0 0 0 5.239 1.212z" opacity=".1" transform="translate(-236.317 -9.171)"/><path d="m130.029 237.635 4.629 1.918a.335.335 0 0 0 .437-.181l2.654-6.407a.335.335 0 0 0 -.181-.437l-4.629-1.918a3.8 3.8 0 0 0 -4.968 2.058 3.8 3.8 0 0 0 2.058 4.967z" fill="#f28b74" transform="translate(-122.292 -216.937)"/><path d="m135.1 256.214.654-1.578c-5.468-1.041-7.3-4.272-6.875-6.435a3.786 3.786 0 0 0 -.9 1.309 3.8 3.8 0 0 0 2.058 4.968l4.629 1.918a.335.335 0 0 0 .434-.182z" opacity=".1" transform="translate(-122.293 -233.78)"/><path d="m309.266 237.635-4.629 1.918a.335.335 0 0 1 -.437-.181l-2.654-6.407a.335.335 0 0 1 .181-.437l4.629-1.917a3.8 3.8 0 0 1 4.968 2.058 3.8 3.8 0 0 1 -2.058 4.966z" fill="#76b7eb" transform="translate(-286.031 -216.937)"/></svg>