<svg height="50.555" viewBox="0 0 82.18 50.555" width="82.18" xmlns="http://www.w3.org/2000/svg"><path d="m69.483 55.535h-.137a2.578 2.578 0 0 1 -2.591-2.066l-3.43-28.769-2.1 10.55a2.563 2.563 0 0 1 -2.3 1.892 2.9 2.9 0 0 1 -2.851-1.242l-3.774-6.337-2.795 2.337a3.029 3.029 0 0 1 -1.937.673h-8.71l-5.041 21.127a2.745 2.745 0 0 1 -2.817 1.835 2.578 2.578 0 0 1 -2.591-2.066l-3.434-28.769-2.1 10.55a2.563 2.563 0 0 1 -2.3 1.892 2.9 2.9 0 0 1 -2.851-1.242l-3.778-6.334-2.791 2.334a3.029 3.029 0 0 1 -1.937.673h-5.479a2.547 2.547 0 0 1 -2.739-2.293 2.547 2.547 0 0 1 2.739-2.3h4.345l4.676-3.919a3.128 3.128 0 0 1 2.375-.643 2.748 2.748 0 0 1 2.013 1.24l1.709 2.863 4.1-20.583a2.65 2.65 0 0 1 2.8-1.959 2.577 2.577 0 0 1 2.641 2.109l3.643 30.651 1.89-7.912a2.664 2.664 0 0 1 2.685-1.846h9.823l4.676-3.919a3.087 3.087 0 0 1 2.373-.64 2.748 2.748 0 0 1 2.009 1.237l1.718 2.863 4.085-20.585a2.52 2.52 0 0 1 2.8-1.912 2.59 2.59 0 0 1 2.649 2.066l3.643 30.651 1.89-7.912a2.664 2.664 0 0 1 2.685-1.846h5.479a2.547 2.547 0 0 1 2.739 2.3 2.547 2.547 0 0 1 -2.739 2.3h-3.24l-5.038 21.116a2.667 2.667 0 0 1 -2.685 1.835z" fill="#ee0061" transform="translate(-1 -4.981)"/></svg>