<svg xmlns="http://www.w3.org/2000/svg" width="17.233" height="22.161" viewBox="0 0 17.233 22.161"><defs><style>.a{fill:#1d282e;stroke:#1d282e;stroke-width:0.1px;}.b{fill:#ee0061;}</style></defs><g transform="translate(-41.25 -31.474)"><g transform="translate(25.4 29.424)"><g transform="translate(15.9 2.1)"><path class="a" d="M27.582,65.1a1.82,1.82,0,0,1-1-.3l-1.815-1.228a.358.358,0,0,1,.409-.587l1.815,1.228a1.044,1.044,0,0,0,1.192,0L30,62.982a.358.358,0,0,1,.409.587L28.6,64.8A1.818,1.818,0,0,1,27.582,65.1Z" transform="translate(-23.063 -52.094)"/><path class="a" d="M29.688,6.21H23.55V4.8h2.775a1.352,1.352,0,0,0,0-2.7H23.372a.539.539,0,0,0-.534.48V6.228h-.445A4.882,4.882,0,0,0,17.519,11.1v.178A1.8,1.8,0,0,0,15.9,13.059v2.384a1.784,1.784,0,0,0,1.779,1.779H23.5v5.871a1.071,1.071,0,0,0,1.067,1.067h1.423a1.071,1.071,0,0,0,1.067-1.067V17.223h4.2a1.784,1.784,0,0,0,1.779-1.779V9.572A3.345,3.345,0,0,0,29.688,6.21ZM23.55,2.794h2.775a.64.64,0,0,1,0,1.281H23.55Zm2.775,20.282a.357.357,0,0,1-.356.356H24.547a.357.357,0,0,1-.356-.356V17.24h2.135Zm6-7.668a1.071,1.071,0,0,1-1.067,1.067H17.661a1.071,1.071,0,0,1-1.067-1.067V13.042a1.071,1.071,0,0,1,1.067-1.067h5.5a.356.356,0,0,0,0-.712H18.213V11.1a4.169,4.169,0,0,1,4.163-4.163H29.67a2.62,2.62,0,0,1,2.615,2.615v5.853Z" transform="translate(-15.9 -2.1)"/><path class="a" d="M47.505,47.99a.357.357,0,0,1-.356-.356V43.453a1.465,1.465,0,0,0-1.459-1.459,1.424,1.424,0,0,0-1.263.747A.354.354,0,1,1,43.8,42.4a2.168,2.168,0,0,1,4.056,1.067v4.2A.352.352,0,0,1,47.505,47.99Z" transform="translate(-38.805 -34.326)"/></g></g><circle class="b" cx="3" cy="3" r="3" transform="translate(41.717 32.555)"/></g></svg>