<svg height="11.414" viewBox="0 0 10.191 11.414" width="10.191" xmlns="http://www.w3.org/2000/svg"><path d="m36.4 54.857h-7.748a1.223 1.223 0 0 0 -1.223 1.223v7.745a1.223 1.223 0 0 0 1.223 1.223h7.748a1.223 1.223 0 0 0 1.223-1.223v-7.745a1.223 1.223 0 0 0 -1.223-1.223z" fill="#c7cfe2" transform="translate(-27.429 -53.634)"/><circle cx="5.095" cy="2.038" fill="#959cb5" r="2.038"/><circle cx="5.096" cy="2.039" fill="#e4eaf8" r="1.631"/><path d="m251.633 46.835a.2.2 0 0 1 -.144-.348l.713-.713a.2.2 0 0 1 .288.288l-.713.713a.2.2 0 0 1 -.144.06z" fill="#ff5050" transform="translate(-246.435 -44.695)"/><path d="m63.214 82.286h-.69a.556.556 0 0 0 -.445.222.583.583 0 0 0 -.109.286 2.646 2.646 0 0 1 -5.258 0 .583.583 0 0 0 -.109-.285.556.556 0 0 0 -.445-.222h-.69a.611.611 0 0 0 -.611.611v7.745a.611.611 0 0 0 .611.612h7.745a.611.611 0 0 0 .611-.612v-7.743a.612.612 0 0 0 -.61-.614z" fill="#5b5d6e" transform="translate(-54.246 -80.452)"/><circle cx="5.096" cy="2.039" fill="#afb9d2" r=".408"/></svg>