<svg height="22.005" viewBox="0 0 22.005 22.005" width="22.005" xmlns="http://www.w3.org/2000/svg"><path d="m25.518 184.759v6.45h5.311a.759.759 0 1 1 0 1.518h-6.07a.759.759 0 0 1 -.759-.759v-7.208a.759.759 0 0 1 1.518 0z" fill="#8fd0d9" transform="translate(-24 -176.412)"/><path d="m341.691 184.759v6.45h-4.932a.759.759 0 1 0 0 1.518h5.691a.759.759 0 0 0 .759-.759v-7.208a.759.759 0 0 0 -1.518 0z" fill="#8fd0d9" transform="translate(-321.204 -176.412)"/><path d="m56 288h6.463a1.8 1.8 0 0 1 1.788 2l-.663 5.97h-1.518v-5.691h-4.552a1.518 1.518 0 0 1 -1.518-1.52z" fill="#fec9a3" transform="translate(-54.483 -275.48)"/><path d="m186.4 457.518h-2.4v-1.518h1.518l1.033.258a.639.639 0 0 1 -.155 1.259z" fill="#92563a" transform="translate(-176.412 -435.513)"/><path d="m56 288h5.311v2.276h-3.793a1.518 1.518 0 0 1 -1.518-1.517z" fill="#92563a" transform="translate(-54.483 -275.48)"/><circle cx="3.859" cy="1.517" fill="#fcac1f" r="1.138"/><path d="m387.415 166.07h-3.415v-3.322a3.886 3.886 0 0 1 1.138-2.748h2.276z" fill="#ffb531" transform="translate(-366.928 -153.55)"/><path d="m368.759 56-.759 2.276h.759v1.518h1.141v1.138h2.276v-4.932z" fill="#fec9a3" transform="translate(-351.686 -54.482)"/><path d="m368 24h2.656a1.518 1.518 0 0 1 1.518 1.518v1.518l-1.138-1.518h-2.276a.759.759 0 0 1 -.759-.759z" fill="#92563a" transform="translate(-351.686 -24)"/><g fill="#cfcfcd"><path d="m0 0h1.518v3.794h-1.518z" transform="matrix(-1 0 0 -1 3.794 20.108)"/><path d="m24.757 448.379 1.517-.379h1.518l1.518.379a.759.759 0 1 1 -.656 1.138h-3.24a.759.759 0 1 1 -.656-1.138z" transform="translate(-23.998 -427.892)"/><path d="m408 368h1.518v3.794h-1.518z" transform="translate(-389.789 -351.686)"/><path d="m365.3 448.379-1.521-.379h-1.518l-1.518.379a.759.759 0 1 0 .656 1.138h3.24a.759.759 0 1 0 .656-1.138z" transform="translate(-344.05 -427.892)"/></g><path d="m291.547 288h-6.516a1.671 1.671 0 0 0 -1.631 2.034l1.318 5.933h1.9l-1.138-5.691h4.553a1.518 1.518 0 0 0 1.518-1.518z" fill="#92563a" transform="translate(-271.06 -275.48)"/><path d="m280.759 456h2.656v1.518h-2.656a.759.759 0 0 1 0-1.518z" fill="#34507b" transform="translate(-267.86 -435.513)"/><path d="m294.07 208v2.276l-4.553.379-1.518.759v1.138h.759l1.138-.379h4.932a1.138 1.138 0 0 0 1.138-1.138v-3.035z" fill="#fec9a3" transform="translate(-275.48 -199.274)"/><path d="m417.9 162.276h-1.9v-1.328a.948.948 0 0 1 1.9 0z" fill="#ffb531" transform="translate(-397.41 -153.55)"/><path d="m59.794 163.382h-3.794v-4.932l3.035-6.45h2.276l.8 1.6a1.518 1.518 0 0 1 -1.357 2.2h-.2l-.759 1.138z" fill="#e0e0de" transform="translate(-54.483 -145.93)"/><path d="m80 296h1.518v.759h-1.518z" fill="#bfbfbd" transform="translate(-77.344 -283.101)"/><path d="m122.276 37.689.445-1.138h1.369v-1.317l.462-.462-.462-.925v-.231a1.618 1.618 0 0 0 -1.6-1.618 1.65 1.65 0 0 0 -1.639 1.655l-.409 2.9-.442 1.136z" fill="#fec9a3" transform="translate(-115.447 -31.618)"/><path d="m115.1 34.957-.351-.351a.568.568 0 0 1 .661-.907l.123.063 1.235-1.646a1.611 1.611 0 0 0 -.606-.117h-.736-.087a2.076 2.076 0 0 0 -1.947 2.344l.011.063a6.837 6.837 0 0 0 .732 2.144z" fill="#ffb531" transform="translate(-109.143 -31.621)"/><path d="m321.518 162.276-1.518-.376v-1.518l1.518-.379z" fill="#348fd9" transform="translate(-305.963 -153.55)"/><path d="m171.425 165.311a3.429 3.429 0 0 1 -3.425-3.424v-1.887h.759v1.887a2.666 2.666 0 0 0 5.22.766l.487-1.624a.379.379 0 0 1 .363-.27h.379v.759h-.1l-.406 1.353a3.425 3.425 0 0 1 -3.277 2.44z" fill="#348fd9" transform="translate(-161.171 -153.55)"/><path d="m145.518 84.173a1.519 1.519 0 0 1 -1.518-1.517v-2.656h.759v2.656a.759.759 0 1 0 1.518 0v-.379h.759v.379a1.519 1.519 0 0 1 -1.518 1.517z" fill="#348fd9" transform="translate(-138.309 -77.344)"/><path d="m121.825 152.308 3.107 3.107 3.035-2.656h1.518v1.518h-1.138l-2.276 2.656a2.052 2.052 0 0 1 -2.276 0l-3.446-3.1a1.05 1.05 0 0 1 .7-1.831h.033a1.05 1.05 0 0 1 .742.308z" fill="#fec9a3" transform="translate(-115.447 -145.93)"/><path d="m121.825 152.308a1.05 1.05 0 0 0 -.742-.308h-.033a1.05 1.05 0 0 0 -.7 1.83l1.17 1.053 1.518-1.366z" fill="#e0e0de" transform="translate(-115.447 -145.93)"/></svg>