<svg id="filled_outline" height="512" viewBox="0 0 512 512" width="512" xmlns="http://www.w3.org/2000/svg" data-name="filled outline"><path d="m384 296c-68.125 76.641-187.875 76.641-256 0v-136h256z" fill="#685d5d"/><path d="m24 120 230.799-96 233.201 96-232 96z" fill="#413a3a"/><circle cx="256" cy="120" fill="#f9e0a0" r="24"/><path d="m48 312a8 8 0 0 1 -8-8v-136a8 8 0 0 1 6.2-7.795l208-48a8 8 0 1 1 3.6 15.59l-201.8 46.569v129.636a8 8 0 0 1 -8 8z" fill="#685d5d"/><path d="m416 480-160-16-160 16v-96l160 16 160-16z" fill="#d3d6d0"/><path d="m223.941 392.378h64.059v79.622h-64.059z" fill="#ee9177"/><path d="m448 440-56-40-56 40 24-96h64z" fill="#ee9177"/><circle cx="392" cy="320" fill="#f9e0a0" r="40"/><path d="m55.172 376h-14.344a8.828 8.828 0 0 1 -8.828-8.828v-63.172h32v63.172a8.828 8.828 0 0 1 -8.828 8.828z" fill="#ee9177"/><path d="m491.045 112.6-233.2-96a8 8 0 0 0 -6.117.011l-230.8 96a8 8 0 0 0 .014 14.779l59.95 24.81-34.692 8.005a8 8 0 0 0 -6.2 7.795v128h-8a8 8 0 0 0 -8 8v63.172a16.847 16.847 0 0 0 16.828 16.828h14.344a16.847 16.847 0 0 0 16.828-16.828v-63.172a8 8 0 0 0 -8-8h-8v-121.636l50.368-11.623 13.632 5.641v127.618a8 8 0 0 0 2.021 5.315 178.871 178.871 0 0 0 113.112 58.955 179.759 179.759 0 0 0 111.88-23.542 47.842 47.842 0 0 0 4.362 8.79l-9.463 37.852-47.187 4.716a7.987 7.987 0 0 0 -6.744-3.708h-64.059a7.946 7.946 0 0 0 -6.738 3.7l-120.384-12.038a8 8 0 0 0 -8.8 7.96v96a8 8 0 0 0 8 8q.4 0 .8-.04l120.2-12.024a7.993 7.993 0 0 0 6.96 4.064h64.06a7.95 7.95 0 0 0 6.956-4.064l120.224 12.024q.4.04.8.04a8 8 0 0 0 8-8v-47.312l19.35 13.821a8 8 0 0 0 12.411-8.45l-23.135-92.541a47.964 47.964 0 0 0 -40.626-73.518v-103.618l99.059-40.99a8 8 0 0 0 -.014-14.79zm-435.045 254.572a.829.829 0 0 1 -.828.828h-14.344a.829.829 0 0 1 -.828-.828v-55.172h16zm48 25.668 111.928 11.191.027 55.93-111.955 11.199zm127.957 71.16-.031-63.622h48.059l.031 63.622zm176.043 7.16-111.986-11.2-.027-55.92 41.8-4.178-9.549 38.2a8 8 0 0 0 12.41 8.45l51.352-36.681 16 11.429zm-11.351-77.67a8 8 0 0 0 -9.3 0l-38.318 27.37 15.4-61.6a47.84 47.84 0 0 0 55.136 0l15.4 61.6zm27.351-73.49a32 32 0 0 1 -63.834 3.273c0-.045-.006-.089-.01-.134-.1-1.033-.156-2.08-.156-3.139a32 32 0 0 1 64 0zm-48-45.248a48.074 48.074 0 0 0 -31.995 45.048 163.356 163.356 0 0 1 -208.005-26.883v-117.917l116.941 48.39a8 8 0 0 0 6.117 0l116.942-48.39zm5.024-119.144c-.079.032-.157.063-.235.1l-124.789 51.634-122.769-50.8 94.39-21.782a31.994 31.994 0 1 0 -3.6-15.589l-116.265 26.829-62.879-26.019 209.937-87.323 212.216 87.361zm-117.229-37.408a8 8 0 0 0 -9.594-6l-13.5 3.115a16.034 16.034 0 1 1 3.623 15.584l13.474-3.109a8 8 0 0 0 5.997-9.59z" fill="#231f20"/></svg>