<svg height="17" viewBox="0 0 13.219 17"
    width="13.219" xmlns="http://www.w3.org/2000/svg">

    <g transform="translate(-83.241 6)">

        <path d="m175.812 297.112h.467v.707a.673.673 0 1 0 1.346 0v-.707h.474a.584.584 0 0 0 0-1.168h-.474v-2.127h-1.339l-.007 2.127h-.467a.584.584 0 0 0 0 1.168z" fill="#ef7d92" transform="translate(-90.007 -287.492)"/><path d="m225.5 299.523v-1.594h-1.339l-.005 1.594a3.705 3.705 0 0 0 1.344 0z" fill="#eb6773" transform="translate(-137.878 -291.516)"/><path d="m86.949 0a3.708 3.708 0 1 0 3.708 3.708 3.708 3.708 0 0 0 -3.708-3.708zm0 6a2.293 2.293 0 1 1 2.293-2.293 2.293 2.293 0 0 1 -2.293 2.293z" fill="#f6a7ae"/><path d="m84.717 4.235a2.294 2.294 0 0 1 2.757-2.76 7.559 7.559 0 0 1 1.613-.8 3.708 3.708 0 0 0 -4.977 5.418 6.909 6.909 0 0 1 .607-1.858z" fill="#f1919b"/></g><path d="m242.872.009h-1.542a.844.844 0 0 0 -.322 1.625.084.084 0 0 1 .028.138l-3.151 3.151 1.082 1.077 3.151-3.151a.085.085 0 0 1 .138.028.844.844 0 0 0 1.625-.322v-1.537a.959.959 0 0 0 -1.009-1.009z" fill="#89b0e0" transform="translate(-230.662 -.009)"/><path d="m239.271 160.7-1.386 1.386 1.082 1.081 1.364-1.364a3.121 3.121 0 0 0 -1.06-1.103z" fill="#6197d5" transform="translate(-230.662 -157.175)"/><path d="m3.78 166.679a3.78 3.78 0 1 0 3.78 3.78 3.78 3.78 0 0 0 -3.78-3.78zm0 6.117a2.337 2.337 0 1 1 2.337-2.337 2.337 2.337 0 0 1 -2.337 2.341z" fill="#99ddfc" transform="translate(2 -163.02)"/><path d="m3.646 174.479a10.12 10.12 0 0 1 -.578-1.534 2.338 2.338 0 0 1 -.1-4.418q.063-.246.137-.489a5.557 5.557 0 0 1 .294-.779 2.565 2.565 0 0 1 .174-.314 3.78 3.78 0 0 0 .083 7.551z" fill="#66cdf7" transform="translate(2 -163.279)"/></svg>