<svg height="12.168" viewBox="0 0 15.211 12.168" width="15.211" xmlns="http://www.w3.org/2000/svg"><path d="m15.211 55.256c0 4.563-7.605 8.112-7.605 8.112s-4.278-2-6.417-4.92a5.461 5.461 0 0 1 -1.189-3.192 4.056 4.056 0 0 1 7.605-1.965 4.056 4.056 0 0 1 7.605 1.965z" fill="#ea8692" transform="translate(0 -51.2)"/><path d="m45.943 54.221c0 2.091-1.743 3.951-3.486 5.287a5.715 5.715 0 0 1 -6.957.011c-1.7-1.3-3.5-3.171-3.5-5.3a3.7 3.7 0 0 1 .8-2.3 4.058 4.058 0 0 1 5.859 1.37 4.06 4.06 0 0 1 7.226.251 3.6 3.6 0 0 1 .058.681z" fill="#fe929f" transform="translate(-31.049 -51.2)"/><g fill="#ffa4b8"><path d="m330.926 145.379a.507.507 0 0 0 -.94.381c.592 1.459-1.4 3.32-2.649 4.287a.507.507 0 1 0 .62.8c1.731-1.335 3.789-3.447 2.969-5.468z" transform="translate(-317.422 -142.274)"/><path d="m375.843 105.553c.2.051.231.1.38.1a.507.507 0 0 0 .191-.977 2.528 2.528 0 0 0 -.317-.1.507.507 0 0 0 -.254.982z" transform="translate(-364.308 -102.97)"/></g></svg>