<svg height="14.847" viewBox="0 0 16.982 14.847" width="16.982" xmlns="http://www.w3.org/2000/svg" xmlns:xlink="http://www.w3.org/1999/xlink"><linearGradient id="a" gradientUnits="objectBoundingBox" x1=".5" x2=".5" y1=".014" y2="1.084"><stop offset="0" stop-color="#ff6185"/><stop offset="1" stop-color="#e2407a"/></linearGradient><linearGradient id="b" gradientUnits="objectBoundingBox" x1=".5" x2=".5" y1=".205" y2="1.249"><stop offset="0" stop-color="#cacaea"/><stop offset="1" stop-color="#b6b6dd"/></linearGradient><linearGradient id="c" x1="1.217" x2=".071" xlink:href="#a" y1="-.887" y2="1.331"/><linearGradient id="d" x1=".5" x2=".5" xlink:href="#a" y1=".066" y2="1.025"/><linearGradient id="e" x1="1.392" x2="-2.313" xlink:href="#a" y1=".19" y2="1.478"/><path d="m28.561 112.218a3.332 3.332 0 0 0 -.678-.259 3.541 3.541 0 0 0 -4.055 1.833 3.54 3.54 0 0 0 -4.055-1.833 3.333 3.333 0 0 0 -.678.259 3.644 3.644 0 0 0 -.489 6.151 5.8 5.8 0 0 0 .584.383 16.688 16.688 0 0 1 4.637 3.753 16.688 16.688 0 0 1 4.637-3.753 5.8 5.8 0 0 0 .584-.383 3.644 3.644 0 0 0 -.488-6.151z" fill="url(#a)" transform="translate(-17.141 -107.659)"/><path d="m193.785 110.849a3.531 3.531 0 0 0 -.95-.11 4.869 4.869 0 0 0 3.671 3.461 3.7 3.7 0 0 0 -2.018-3.082 3.456 3.456 0 0 0 -.703-.269z" fill="#fff" transform="translate(-183.075 -106.607)"/><circle cx="3.254" cy="3.254" fill="url(#b)" r="3.254" transform="translate(10.475)"/><circle cx=".772" cy=".772" fill="url(#c)" r=".772" transform="translate(12.957 2.482)"/><path d="m257.565 183.734a20.221 20.221 0 0 1 -1.037-3.03.252.252 0 0 0 -.488 0 20.227 20.227 0 0 1 -1.037 3.03 3.48 3.48 0 0 0 -.217 2.5l.015.028a1.7 1.7 0 0 0 2.966 0l.015-.028a3.48 3.48 0 0 0 -.217-2.5zm-1.865 1.966a.512.512 0 1 1 .311-.564.461.461 0 0 1 -.311.564z" fill="url(#d)" transform="translate(-241.415 -172.507)"/><g fill="#fff"><circle cx="10.843" cy="9.23" r=".206"/><path d="m225.4 56.276a.194.194 0 0 1 -.184-.256 2.277 2.277 0 0 1 4.288-.089.194.194 0 1 1 -.363.138 1.889 1.889 0 0 0 -3.556.074.194.194 0 0 1 -.185.133z" transform="translate(-213.647 -53.459)"/><path d="m55.942 175.636h-.057a.663.663 0 0 1 -.605-.527l-.448-2.033a.286.286 0 0 0 -.525-.084l-.548.928a.906.906 0 0 1 -.777.443h-1.306a.194.194 0 1 1 0-.389h1.306a.515.515 0 0 0 .442-.252l.548-.928a.674.674 0 0 1 1.239.2l.448 2.033a.286.286 0 0 0 .545.043l.465-1.184a.664.664 0 0 1 1.16-.14.514.514 0 0 0 .419.217h1.1a.194.194 0 0 1 0 .389h-1.1a.9.9 0 0 1 -.737-.382.275.275 0 0 0 -.48.058l-.465 1.184a.661.661 0 0 1 -.624.424z" transform="translate(-49.574 -164.901)"/></g><rect fill="url(#e)" height="2.659" rx=".239" transform="matrix(.90930149 .41613796 -.41613796 .90930149 14.694 .597)" width=".478"/></svg>