<svg height="28" viewBox="0 0 28 28" width="28" xmlns="http://www.w3.org/2000/svg"><circle cx="14" cy="14" fill="#f8f7fa" r="14"/><path d="m29.34 27.56v-1.187l.593-1.187-.593-.3v-.886h4.747l.593.593h.89v2.967l-1.187 1.187v2.077l5.365 1.61a.89.89 0 0 1 .63.761l.828 8.013h-1.78l-.593-5.637-.3 5.637h-11.566l-.593-5.637-.593 5.637h-1.781l.828-8.277a.89.89 0 0 1 .67-.775l5.326-1.331v-1.485h-.89v-1.78z" fill="#5ec09b" transform="translate(-18.454 -18.455)"/><path d="m171.264 95.12-1.484 1.48v-1.48l.89-.89v-4.45h-2.077v-.593h-.593v-1.187h3.857v6.23l1.187 1.187v1.483z" fill="#e22526" transform="translate(-157.113 -80.082)"/><path d="m34.522 18.967h.619l-.087.087a.3.3 0 1 0 .42.42l.593-.593.02-.022.007-.01.01-.013.008-.013.007-.012.006-.013.006-.013v-.013a.09.09 0 0 0 0-.014.069.069 0 0 1 0-.014s0-.009 0-.014a.048.048 0 0 1 0-.016c0-.005 0-.009 0-.013a.309.309 0 0 0 0-.059.03.03 0 0 0 0-.013s0-.011 0-.016a.054.054 0 0 1 0-.014s0-.009 0-.014a.091.091 0 0 0 0-.014.039.039 0 0 0 0-.013l-.006-.013-.006-.013-.007-.012-.008-.013-.01-.013-.007-.01-.02-.022-.593-.593a.3.3 0 1 0 -.42.42l.087.087h-.619a1.931 1.931 0 0 1 -1.928-1.928v-.148a.3.3 0 1 0 -.593 0v.148a2.524 2.524 0 0 0 2.522 2.522z" fill="#40c6f3" transform="translate(-26.157 -10.752)"/><path d="m20.446 120h-1.335a2.524 2.524 0 0 0 -2.522 2.522v.026l-.087-.087a.3.3 0 1 0 -.42.42l.593.593.022.02.01.007.014.01.012.007.013.008.013.006.013.006h.013l.014.005h.013.015.016.013a.289.289 0 0 0 .059 0h.013.016.015.013l.014-.005h.013l.013-.006.013-.006.013-.008.012-.007.014-.01.01-.007.022-.02.593-.593a.3.3 0 1 0 -.42-.42l-.087.087v-.026a1.931 1.931 0 0 1 1.928-1.928h1.335a.3.3 0 1 0 0-.593z" fill="#40c6f3" transform="translate(-10.746 -110.895)"/><path d="m289.79 256.307 1.463 1.463a1.049 1.049 0 0 1 .307.742v3.857a1.049 1.049 0 0 1 -1.049 1.049h-1.463a1.049 1.049 0 0 1 -1.048-1.05v-5.319a1.049 1.049 0 0 1 1.791-.742z" fill="#fd918c" transform="translate(-272.663 -241.852)"/><path d="m129.77 256.307-1.463 1.463a1.049 1.049 0 0 0 -.307.742v3.857a1.049 1.049 0 0 0 1.049 1.049h1.463a1.049 1.049 0 0 0 1.049-1.049v-5.319a1.049 1.049 0 0 0 -1.791-.742z" fill="#fd918c" transform="translate(-118.597 -241.852)"/><g fill="#e22526"><path d="m147.172 280.5a.3.3 0 0 0 -.42-.42l-1.78 1.78-.89.89a.3.3 0 0 0 .42.42l.379-.379v.648l-.794.794a.3.3 0 0 0 .42.42l.371-.371v.165l.015.89a.3.3 0 0 0 .3.291h.005a.3.3 0 0 0 .291-.3v-.169l.092.09a.3.3 0 0 0 .415-.425l-.519-.505v-.691a.3.3 0 0 0 0-.146v-.111l.095.1a.3.3 0 1 0 .42-.42l-.51-.509v-.344z" transform="translate(-134 -264.958)"/><path d="m280.082 280.5a.3.3 0 0 1 .42-.42l1.78 1.78.89.89a.3.3 0 0 1 -.42.42l-.379-.379v.648l.794.794a.3.3 0 0 1 -.42.42l-.371-.371v.165l-.015.89a.3.3 0 0 1 -.3.291h-.005a.3.3 0 0 1 -.291-.3v-.169l-.092.09a.3.3 0 1 1 -.415-.425l.519-.505v-.691a.3.3 0 0 1 0-.146v-.111l-.095.1a.3.3 0 1 1 -.42-.42l.51-.509v-.344z" transform="translate(-264.956 -264.958)"/></g></svg>