<svg height="13.789" viewBox="0 0 15.306 13.789" width="15.306" xmlns="http://www.w3.org/2000/svg"><g transform="translate(.002 -.5)"><path d="m15.144 3.946a4.678 4.678 0 0 0 -1.571-2.493 4.135 4.135 0 0 0 -2.598-.953 3.836 3.836 0 0 0 -2 .566 4.791 4.791 0 0 0 -1.321 1.2 4.153 4.153 0 0 0 -3.328-1.766 4.134 4.134 0 0 0 -2.6.953 4.679 4.679 0 0 0 -1.568 2.493 6.207 6.207 0 0 0 .988 4.927 16.6 16.6 0 0 0 6.289 5.36.448.448 0 0 0 .429 0 16.612 16.612 0 0 0 6.291-5.36 6.206 6.206 0 0 0 .989-4.927zm0 0" fill="#ff5b5b"/><path d="m263.493 3.946a4.678 4.678 0 0 0 -1.571-2.493 4.135 4.135 0 0 0 -2.6-.953 3.836 3.836 0 0 0 -2 .566 4.789 4.789 0 0 0 -1.32 1.2v12.023a.448.448 0 0 0 .213-.055 16.61 16.61 0 0 0 6.285-5.361 6.206 6.206 0 0 0 .989-4.927zm0 0" fill="#ff0059" transform="translate(-248.349)"/><path d="m11.592 154.441.559-1.119 1.52 3.04a.448.448 0 0 0 .8 0l1.52-3.04.559 1.119a.448.448 0 0 0 .4.248h3.4a.448.448 0 1 0 0-.9h-3.119l-.837-1.673a.448.448 0 0 0 -.8 0l-1.52 3.04-1.52-3.04a.448.448 0 0 0 -.8 0l-.836 1.673h-2.318a7.162 7.162 0 0 0 .336.9h2.258a.448.448 0 0 0 .4-.248zm0 0" fill="#e7f0ef" transform="translate(-8.342 -146.846)"/><path d="m260.36 153.792h-3.123l-.836-1.673a.448.448 0 0 0 -.4-.248v1.451l.559 1.118a.448.448 0 0 0 .4.248h3.4a.448.448 0 1 0 0-.9zm0 0" fill="#c5e1e6" transform="translate(-248.348 -146.846)"/></g></svg>