<svg height="25.722" viewBox="0 0 22.943 25.722" width="22.943" xmlns="http://www.w3.org/2000/svg"><path d="m31.421 6.428a2.8 2.8 0 0 0 -2.794 2.794v1.7a2.8 2.8 0 0 0 1.891 2.641v.955a.59.59 0 0 0 .169.413v7.8a6.024 6.024 0 0 1 -12.049 0v-1.5a5.869 5.869 0 0 0 5.176-5.82c0-3.489-5.474-9.756-5.707-10.021a.205.205 0 0 0 -.154-.07.2.2 0 0 0 -.154.07c-.233.267-5.707 6.57-5.707 10.021a5.869 5.869 0 0 0 5.077 5.807v1.51a7.493 7.493 0 1 0 14.986 0v-7.8a.59.59 0 0 0 .167-.411v-.955a2.8 2.8 0 0 0 1.891-2.641v-1.7a2.8 2.8 0 0 0 -2.794-2.794z" fill="#e6e7e8" transform="translate(-11.272 -4.499)"/><path d="m20.4 12.207a5.656 5.656 0 0 1 -11.312 0c0-3.414 5.656-9.886 5.656-9.886s5.656 6.434 5.656 9.886z" fill="#fa759e" transform="translate(-8.886 -2.116)"/><path d="m48.192 47.768h-.62a.386.386 0 0 1 -.218-.068v7.89a6.229 6.229 0 0 1 -12.459 0v-1.682c-.158.013-.318.022-.48.022a5.675 5.675 0 0 1 -.579-.029v1.69a7.288 7.288 0 1 0 14.576 0v-7.891a.384.384 0 0 1 -.22.068z" fill="#520974" transform="translate(-28.554 -38.183)"/><path d="m99.59 40.857a2.583 2.583 0 0 1 -.7-.1v1.105a.387.387 0 0 0 .387.387h.62a.387.387 0 0 0 .387-.387v-1.103a2.58 2.58 0 0 1 -.694.098z" fill="#6dc9f7" transform="translate(-80.262 -32.667)"/><path d="m92.264 14.595a2.589 2.589 0 0 1 -2.589-2.589v-1.7a2.589 2.589 0 0 1 5.178 0v1.7a2.589 2.589 0 0 1 -2.589 2.589z" fill="#ae1f43" transform="translate(-72.936 -6.405)"/><path d="m92.264 7.718a2.589 2.589 0 0 0 -2.589 2.589v.616a2.589 2.589 0 0 1 5.178 0v-.616a2.589 2.589 0 0 0 -2.589-2.589z" fill="#fff" transform="translate(-72.936 -6.406)"/><circle cx="5.861" cy="9.904" fill="#d4fbff" r="3.937"/><path d="m40.059 49.587a3.413 3.413 0 0 1 -3.409 3.413v-.8a2.617 2.617 0 0 0 2.615-2.614h.794z" fill="#fa759e" transform="translate(-30.79 -39.683)"/><path d="m40.059 36.384h-.794a2.617 2.617 0 0 0 -2.615-2.615v-.794a3.413 3.413 0 0 1 3.409 3.409z" fill="#ffd7e5" transform="translate(-30.79 -26.48)"/><path d="m23.457 32.975v.794a2.616 2.616 0 0 0 -2.612 2.615h-.794a3.411 3.411 0 0 1 3.406-3.409z" fill="#0089ef" transform="translate(-17.597 -26.48)"/><path d="m23.457 52.2v.8a3.411 3.411 0 0 1 -3.406-3.409h.794a2.616 2.616 0 0 0 2.612 2.609z" fill="#6dc9f7" transform="translate(-17.597 -39.683)"/><circle cx="5.86" cy="9.793" fill="#fa759e" r=".553"/><g fill="#3a2c60"><path d="m104.081 61.167a.205.205 0 0 0 -.205.205v1.766a.205.205 0 1 0 .41 0v-1.766a.205.205 0 0 0 -.205-.205z" transform="translate(-84.223 -48.888)"/><path d="m27.421 2.429a2.8 2.8 0 0 0 -2.794 2.794v1.7a2.8 2.8 0 0 0 1.891 2.642v.955a.59.59 0 0 0 .169.413v7.8a6.024 6.024 0 0 1 -12.049 0v-1.5a5.869 5.869 0 0 0 5.176-5.82c0-3.489-5.474-9.756-5.707-10.021a.205.205 0 0 0 -.154-.07.2.2 0 0 0 -.154.07c-.233.267-5.707 6.569-5.707 10.021a5.869 5.869 0 0 0 5.077 5.807v1.51a7.493 7.493 0 1 0 14.987 0v-2.154a.205.205 0 1 0 -.41 0v2.153a7.083 7.083 0 0 1 -14.166 0v-1.469c.124.008.248.013.373.013.092 0 .184 0 .275-.007v1.463a6.435 6.435 0 0 0 12.869 0v-7.619h.648v1.6a.205.205 0 0 0 .41 0v-1.78a.59.59 0 0 0 .167-.411v-.955a2.8 2.8 0 0 0 1.891-2.642v-1.7a2.8 2.8 0 0 0 -2.794-2.794zm-18.921 8.983c0-2.986 4.549-8.505 5.451-9.571.9 1.061 5.45 6.552 5.45 9.571a5.451 5.451 0 0 1 -10.9 0zm19.41-.894a.182.182 0 0 1 -.182.182h-.62a.182.182 0 0 1 -.182-.182v-.848a2.647 2.647 0 0 0 .984 0zm1.891-3.6a2.384 2.384 0 1 1 -4.767 0v-1.7a2.384 2.384 0 0 1 4.767 0z" transform="translate(-8.093 -1.321)"/><path d="m20.611 29.4a4.142 4.142 0 1 0 4.142 4.142 4.147 4.147 0 0 0 -4.142-4.142zm0 7.874a3.732 3.732 0 1 1 3.732-3.732 3.736 3.736 0 0 1 -3.732 3.732z" transform="translate(-14.75 -23.639)"/><circle cx="5.901" cy="6.896" r=".403"/><circle cx="2.854" cy="9.864" r=".403"/><circle cx="5.821" cy="12.911" r=".403"/><circle cx="8.868" cy="9.943" r=".403"/><path d="m36.066 52.886v-1.338a.542.542 0 0 1 -.41 0v1.338a.205.205 0 1 0 .41 0z" transform="translate(-30.001 -41.242)"/></g></svg>