<svg height="512" viewBox="0 0 512 512" width="512" xmlns="http://www.w3.org/2000/svg"><g id="Outline"><g id="_09-Personal-ID-card_copy_4" data-name="09-Personal-ID-card copy 4"><path d="m456 112h-400a40.045 40.045 0 0 0 -40 40v208a40.045 40.045 0 0 0 40 40h400a40.045 40.045 0 0 0 40-40v-208a40.045 40.045 0 0 0 -40-40zm24 248a24.028 24.028 0 0 1 -24 24h-400a24.028 24.028 0 0 1 -24-24v-208a24.028 24.028 0 0 1 24-24h400a24.028 24.028 0 0 1 24 24z"/><path d="m200 160h-128a8 8 0 0 0 -8 8v136a8 8 0 0 0 8 8h128a8 8 0 0 0 8-8v-136a8 8 0 0 0 -8-8zm-8 16v72.022a39.788 39.788 0 0 0 -19.466-7.758 40 40 0 1 0 -73.068 0 39.788 39.788 0 0 0 -19.466 7.758v-72.022zm-80 48a23.995 23.995 0 1 1 8.129 18.006 24.028 24.028 0 0 1 -8.129-18.006zm-32 56a24.027 24.027 0 0 1 24-24h8.007a39.979 39.979 0 0 0 47.986 0h8.007a24.027 24.027 0 0 1 24 24v16h-112z"/><path d="m64 336h48v16h-48z"/><path d="m144 336h64v16h-64z"/><path d="m240 272h32v16h-32z"/><path d="m288 272h64v16h-64z"/><path d="m240 160h32v16h-32z"/><path d="m288 160h40v16h-40z"/><path d="m392 160h56v16h-56z"/><path d="m344 160h32v16h-32z"/><path d="m440 192h-192a8 8 0 0 0 -8 8v32a8 8 0 0 0 8 8h192a8 8 0 0 0 8-8v-32a8 8 0 0 0 -8-8zm-8 32h-176v-16h176z"/><path d="m440 256h-64a8 8 0 0 0 -8 8v48a8 8 0 0 0 8 8h64a8 8 0 0 0 8-8v-48a8 8 0 0 0 -8-8zm-8 48h-48v-32h48z"/><path d="m240 336h208v16h-208z"/></g></g></svg>