<svg height="63.249" viewBox="0 0 59.178 63.249" width="59.178" xmlns="http://www.w3.org/2000/svg"><path d="m49.781 2.162h-8.7v16.751a7.663 7.663 0 0 1 -1.962 5.12l-12.324 13.72 3.354 3.295 12.651-12.369a3.758 3.758 0 0 1 5.255 0l12.645 12.369 3.354-3.283-12.315-13.733a7.661 7.661 0 0 1 -1.958-5.116z" fill="#c0c7dc" transform="translate(-15.837 -1.503)"/><path d="m45.159 2.164v16.746a7.683 7.683 0 0 1 -1.959 5.125l-12.32 13.72 1.32 1.291-2.05 2-3.35-3.291 12.32-13.72a7.685 7.685 0 0 0 1.961-5.125v-16.746z" opacity=".1" transform="translate(-15.838 -1.504)"/><g fill="#f2fdff"><path d="m55.319 32.237a16.5 16.5 0 0 0 8.7 0" transform="translate(-30.078 -16.517)"/><path d="m55.319 22.257a16.4 16.4 0 0 0 8.7 0" transform="translate(-30.078 -11.535)"/><path d="m55.319 12.27a16.3 16.3 0 0 0 8.7 0" transform="translate(-30.078 -6.549)"/></g><path d="m12.536 78.2c-5.564-4.573-7.528-9.02-5.568-15.866 1.876-6.553 5.4-13.056 9.253-19.762 2.764-4.815 7.4-7.008 9.728-1.97 8.406 18.156 5.8 41.16-2.8 41.249a15.751 15.751 0 0 1 -10.613-3.651z" fill="#f19a99" transform="translate(-5.569 -19.261)"/><path d="m29.323 82.091a15.7 15.7 0 0 1 -10.615-3.657c-.04-.03-.079-.069-.118-.1a17.886 17.886 0 0 0 3.361.7c8.536.966 13.967-21.534 7.865-40.586-.03-.079-.049-.158-.079-.227a4.86 4.86 0 0 1 2.385 2.622c8.408 18.157 5.796 41.157-2.799 41.248z" opacity=".1" transform="translate(-11.741 -19.505)"/><path d="m25.633 40c-2.4-1.1-5.421 1.015-7.441 4.544-3.844 6.709-7.373 13.205-9.255 19.756-1.557 5.441-.63 9.364 2.6 13.03-4.8-4.268-6.416-8.575-4.573-15 1.873-6.554 5.4-13.06 9.255-19.762 2.643-4.601 7-6.819 9.414-2.568z" fill="#fff" opacity=".3" transform="translate(-5.567 -19.261)"/><path d="m90.682 78.2c5.564-4.569 7.528-9.016 5.568-15.862-1.876-6.553-5.4-13.056-9.253-19.762-2.764-4.815-7.4-7.008-9.728-1.97-8.406 18.156-5.8 41.16 2.8 41.249a15.75 15.75 0 0 0 10.613-3.655z" fill="#f19a99" transform="translate(-38.472 -19.261)"/><path d="m93.1 78.613a15.684 15.684 0 0 1 -10.612 3.657c-2.287-.02-4.149-1.666-5.5-4.416a4.512 4.512 0 0 0 1.271.187 15.687 15.687 0 0 0 10.615-3.656c5.569-4.563 7.53-9.009 5.569-15.859-1.873-6.554-5.4-13.06-9.255-19.762-.04-.059-.069-.128-.108-.187a10.5 10.5 0 0 1 4.337 4.416c3.854 6.7 7.382 13.207 9.255 19.762 1.961 6.845 0 11.294-5.572 15.858z" opacity=".1" transform="translate(-40.896 -19.683)"/><path d="m85.736 40.72c-2.425-1.873-5.106-1.823-6.712 1.636-6.712 14.488-6.4 32.062-1.636 38.617-6.357-4.357-7.56-24.273-.118-40.373 2.01-4.327 5.716-3.312 8.466.118z" fill="#fff" opacity=".3" transform="translate(-38.477 -19.263)"/><path d="m63.323 43.737c-1.953-6.825-5.745-13.689-9.315-19.908-1.889-3.29-4.541-5.271-6.849-5.167-1.185.052-2.849.657-4.048 3.247-.313.677-.606 1.361-.889 2.049l-.922-1.023a6.993 6.993 0 0 1 -1.79-4.676v-16.759a.659.659 0 0 0 -.659-.659h-8.7a.659.659 0 0 0 -.651.659v16.756a8.061 8.061 0 0 1 -2.716 5.707c-.283-.69-.577-1.376-.891-2.054-1.2-2.59-2.863-3.2-4.048-3.247-3.9-.161-6.492 4.526-7.911 7.03 0 .009-.011.016-.015.026-3.289 5.806-6.492 11.915-8.238 18.02-1.428 4.988-.893 8.9 1.887 12.594l.428.543a24.567 24.567 0 0 0 3.469 3.415 16.4 16.4 0 0 0 10.825 3.805h.21c2.076-.022 3.932-1.233 5.366-3.5 4.5-7.118 3.5-20.827 1.4-29.1l3.071-3a3.118 3.118 0 0 1 4.334 0l3.063 3c-1.973 7.767-2.13 15.938-1.526 19.323a23.844 23.844 0 0 0 2.922 9.779c1.434 2.269 3.29 3.481 5.366 3.5a16.453 16.453 0 0 0 11.043-3.8c1-.819 3.841-3.479 3.9-3.958 2.779-3.7 3.314-7.606 1.886-12.594zm-32.508-41.573h7.385v3.885a15.649 15.649 0 0 1 -7.382 0zm0 5.239a16.961 16.961 0 0 0 3.69.414 16.986 16.986 0 0 0 3.695-.417v3.644a15.746 15.746 0 0 1 -7.382 0v-3.644zm0 5a16.947 16.947 0 0 0 3.677.41 17.211 17.211 0 0 0 3.708-.413v3.643a15.838 15.838 0 0 1 -7.382 0zm-1.155 36.716a2.5 2.5 0 0 0 -.224-.141c-1.791-.889-3.893.069-5.226-.738-1.346-.849-1.35-3.18-2.76-4.575a2.6 2.6 0 0 0 -3.384-.392.659.659 0 1 0 .834 1.02 1.342 1.342 0 0 1 1.623.307c1.157 1.145 1.179 3.614 2.992 4.758 1.578.964 4.173.222 5.334.8a1.478 1.478 0 0 1 .646.681 22.328 22.328 0 0 1 -2.74 9.05 6.349 6.349 0 0 1 -2.655 2.521c-.4-2.728-2.457-2.811-3.484-4.659a4.442 4.442 0 0 1 -.277-3.827.659.659 0 0 0 -1.218-.5 5.783 5.783 0 0 0 .349 4.977c1.219 2.2 3.1 2.109 3.343 4.35-.109.01-.216.027-.326.028a15.187 15.187 0 0 1 -10.187-3.509 23.637 23.637 0 0 1 -3.162-3.07c1.039-1.333 1.328-2.889 2.373-3.789 1.1-.942 3.866-1.644 3.688-3.912a.666.666 0 0 0 -.709-.6.659.659 0 0 0 -.605.709c.1 1.307-2.144 1.876-3.232 2.809-1.22 1.05-1.567 2.543-2.352 3.7-2.252-3.237-2.612-6.633-1.357-11.017 1.638-5.722 4.607-11.494 7.711-17.012 1.28 1.232 2.646 1.53 3.837 2.36a2.636 2.636 0 0 1 1.332 2.331.659.659 0 0 0 .535.763.691.691 0 0 0 .115.01.659.659 0 0 0 .648-.552 3.864 3.864 0 0 0 -1.879-3.64c-1.434-1-2.692-1.152-3.906-2.482 1.168-2.054 3.376-5.907 6.33-5.907 1.466 0 2.414 1.16 3.029 2.487a54.086 54.086 0 0 1 3.084 8.523 1.943 1.943 0 0 1 -1.044 1.89 7.616 7.616 0 0 1 -2.451.719 6.662 6.662 0 0 0 -2.876 1.069 25.083 25.083 0 0 0 -2.17 2.433 3.517 3.517 0 0 1 -3.544.678.659.659 0 1 0 -.476 1.23 4.815 4.815 0 0 0 4.917-.94c.789-.732 1.337-1.8 2.067-2.348a5.581 5.581 0 0 1 2.326-.825 8.576 8.576 0 0 0 2.874-.878 3.7 3.7 0 0 0 .939-.79 54.328 54.328 0 0 1 1.318 15.9zm7.933-21.566a4.444 4.444 0 0 0 -6.177 0l-2.542 2.484c-.445-1.577-.962-3.149-1.553-4.7.628-.9 3.492-2.909 3.492-7.076v-.861a16.88 16.88 0 0 0 7.382 0v.861a8.306 8.306 0 0 0 2.127 5.556l1.356 1.512c-.59 1.553-1.109 3.125-1.553 4.7zm23.107 27.559a21.118 21.118 0 0 1 -1.087-2.038c-1.161-2.161-2.406-2.3-3.507-3.032-.508-.33-1.035-.883-.991-1.444a.659.659 0 0 0 -.605-.709.669.669 0 0 0 -.709.6 3.026 3.026 0 0 0 1.579 2.647c1.292.862 2.11.765 3.07 2.553a14.874 14.874 0 0 0 1.411 2.5 23.7 23.7 0 0 1 -3.161 3.082 15.2 15.2 0 0 1 -10.19 3.505c-.11 0-.217-.018-.326-.028a3.221 3.221 0 0 1 1.6-2.432 6.014 6.014 0 0 0 1.736-1.909 5.785 5.785 0 0 0 .353-4.986.659.659 0 0 0 -1.218.5 4.446 4.446 0 0 1 -.282 3.835 4.815 4.815 0 0 1 -1.418 1.532 4.508 4.508 0 0 0 -2.055 3.123 6.346 6.346 0 0 1 -2.651-2.523 22.313 22.313 0 0 1 -2.74-9.045c.456-1.051 1.841-.981 2.986-.94a5.24 5.24 0 0 0 3-.549 5.517 5.517 0 0 0 1.9-2.764 5.54 5.54 0 0 1 1.08-1.989 1.344 1.344 0 0 1 1.623-.307.659.659 0 0 0 .834-1.02 2.6 2.6 0 0 0 -3.384.391 6.676 6.676 0 0 0 -1.383 2.452 4.4 4.4 0 0 1 -1.373 2.121 4.215 4.215 0 0 1 -2.3.348 5.276 5.276 0 0 0 -3.149.534 54.317 54.317 0 0 1 1.319-15.9 3.7 3.7 0 0 0 .94.79c1.7 1 3.892.715 5.2 1.7.7.531 1.294 1.63 2.069 2.348a4.812 4.812 0 0 0 4.916.94.659.659 0 0 0 -.476-1.229 3.515 3.515 0 0 1 -3.544-.678 25.87 25.87 0 0 0 -2.17-2.433c-1.828-1.382-3.671-.815-5.327-1.787a1.938 1.938 0 0 1 -1.044-1.89 54.086 54.086 0 0 1 3.084-8.523c.739-1.6 1.719-2.432 2.911-2.484 2.265-.113 4.505 2.515 5.648 4.506q.4.7.8 1.4c-1.2 1.318-2.573 1.551-3.9 2.48a3.866 3.866 0 0 0 -1.881 3.642.659.659 0 0 0 1.3-.227 2.639 2.639 0 0 1 1.335-2.333c1.075-.749 2.587-1.158 3.834-2.358 3.1 5.518 6.073 11.29 7.711 17.013 1.254 4.383.894 7.78-1.357 11.01z" fill="#6b6dad" transform="translate(-4.911 -.846)"/></svg>