<svg height="22.331" viewBox="0 0 19.714 22.331" width="19.714" xmlns="http://www.w3.org/2000/svg"><path d="m49.716 22.331h-19.716v-22.331h5.84l4.017 1.57 4.019-1.57h5.84z" fill="#6ae0db" transform="translate(-30.002)"/><path d="m265.857 0h-5.84l-4.017 1.57v20.761h9.857z" fill="#1fc7c7" transform="translate(-246.143)"/><path d="m85 55h14.918v17.533h-14.918z" fill="#e7ffff" transform="translate(-82.603 -52.601)"/><path d="m256 55h7.458v17.533h-7.458z" fill="#daf2fe" transform="translate(-246.143 -52.601)"/><path d="m171.939 4.581h-8.033v-4.581h8.033z" fill="#2d6994" transform="translate(-158.066)"/><path d="m256 0h4.017v4.581h-4.017z" fill="#2d5177" transform="translate(-246.143)"/><path d="m216.546 145.368h-1.121v-1.121h-1.525v1.121h-1.121v1.532h1.121v1.121h1.529v-1.121h1.121z" fill="#fc445f" transform="translate(-204.804 -137.956)"/><g fill="#ccddfe"><path d="m137 266.781h3.489v1.308h-3.489z" transform="translate(-132.334 -255.145)"/><path d="m137 326.784h3.489v1.308h-3.489z" transform="translate(-132.334 -312.531)"/><path d="m137 386.788h3.489v1.312h-3.489z" transform="translate(-132.334 -369.918)"/></g><path d="m293.1 266.781h3.489v1.308h-3.489z" fill="#b0c4e7" transform="translate(-281.62 -255.145)"/><path d="m293.1 326.784h3.489v1.308h-3.489z" fill="#b0c4e7" transform="translate(-281.62 -312.531)"/><path d="m293.1 386.788h3.489v1.312h-3.489z" fill="#b0c4e7" transform="translate(-281.62 -369.918)"/><path d="m256.764 145.368v-1.121h-.764v3.77h.764v-1.117h1.121v-1.529z" fill="#ce0c52" transform="translate(-246.143 -137.956)"/></svg>