<svg enable-background="new 0 0 512 512" height="512" viewBox="0 0 512 512" width="512" xmlns="http://www.w3.org/2000/svg"><path d="m413.332 81.099h-314.664c-20.529 0-37.171 16.643-37.171 37.171v356.559c0 20.529 16.643 37.171 37.171 37.171h314.665c20.529 0 37.171-16.643 37.171-37.171v-356.559c-.001-20.53-16.642-37.171-37.172-37.171z" fill="#520974" xmlns="http://www.w3.org/2000/svg"/><path d="m108.498 81.099v44.865c0 25.596 20.824 46.421 46.421 46.421h202.164c25.597 0 46.421-20.824 46.421-46.421v-44.865z" fill="#faa330" xmlns="http://www.w3.org/2000/svg"/><path d="m98.668 476.514c-.929 0-1.685-.756-1.685-1.685v-356.559c0-.929.756-1.685 1.685-1.685h314.665c.929 0 1.685.756 1.685 1.685v356.559c0 .929-.756 1.685-1.685 1.685z" fill="#f0f0f0" xmlns="http://www.w3.org/2000/svg"/><path d="m108.498 116.585v9.379c0 25.596 20.824 46.421 46.421 46.421h202.164c25.597 0 46.421-20.824 46.421-46.421v-9.379c-.001 0-295.006 0-295.006 0z" fill="#d9d9d9" xmlns="http://www.w3.org/2000/svg"/><path d="m357.081 45.714h-55.367c0-25.247-20.466-45.714-45.714-45.714s-45.714 20.467-45.714 45.714h-55.367c-8.569 0-15.516 6.947-15.516 15.516v64.735c0 8.569 6.947 15.516 15.516 15.516h202.163c8.569 0 15.516-6.947 15.516-15.516v-64.735c-.001-8.569-6.948-15.516-15.517-15.516z" fill="#bcbcbc" xmlns="http://www.w3.org/2000/svg"/><circle cx="256" cy="43.039" fill="#e3e3e3" r="16.294"/><g fill="#3b484a" xmlns="http://www.w3.org/2000/svg"><path d="m184.77 105.017c-4.268 0-7.726-3.459-7.726-7.726v-12.892c0-4.267 3.458-7.726 7.726-7.726s7.726 3.459 7.726 7.726v12.891c.001 4.267-3.458 7.727-7.726 7.727z"/><path d="m327.229 105.017c-4.268 0-7.726-3.459-7.726-7.726v-12.892c0-4.267 3.458-7.726 7.726-7.726s7.726 3.459 7.726 7.726v12.891c0 4.267-3.458 7.727-7.726 7.727z"/><path d="m256 111.897c-9.081 0-17.61-3.798-23.397-10.42-2.809-3.213-2.481-8.094.732-10.902 3.212-2.808 8.094-2.48 10.901.732 2.855 3.265 7.141 5.136 11.764 5.136s8.909-1.872 11.764-5.136c2.808-3.213 7.689-3.541 10.901-.732 3.213 2.808 3.542 7.689.732 10.902-5.788 6.623-14.316 10.42-23.397 10.42z"/><path d="m341.167 318.301h-170.333c-4.268 0-7.726-3.459-7.726-7.726s3.458-7.726 7.726-7.726h170.333c4.268 0 7.726 3.459 7.726 7.726s-3.459 7.726-7.726 7.726z"/><path d="m341.167 364.94h-170.333c-4.268 0-7.726-3.459-7.726-7.726s3.458-7.726 7.726-7.726h170.333c4.268 0 7.726 3.459 7.726 7.726 0 4.266-3.459 7.726-7.726 7.726z"/><path d="m341.167 411.579h-170.333c-4.268 0-7.726-3.459-7.726-7.726s3.458-7.726 7.726-7.726h170.333c4.268 0 7.726 3.459 7.726 7.726s-3.459 7.726-7.726 7.726z"/></g><path d="m299.701 207.866h-27.407v-27.406h-32.588v27.406h-27.407v32.59h27.407v27.407h32.588v-27.407h27.407z" fill="#fc7c81" xmlns="http://www.w3.org/2000/svg"/></svg>