<svg enable-background="new 0 0 512 512" height="512" viewBox="0 0 512 512" width="512" xmlns="http://www.w3.org/2000/svg"><path d="m172.5 186.871c4.143 0 7.5-3.358 7.5-7.5v-21.462c0-4.142-3.357-7.5-7.5-7.5s-7.5 3.358-7.5 7.5v21.462c0 4.142 3.357 7.5 7.5 7.5z"/><path d="m262.5 186.871c4.143 0 7.5-3.358 7.5-7.5v-21.462c0-4.142-3.357-7.5-7.5-7.5s-7.5 3.358-7.5 7.5v21.462c0 4.142 3.357 7.5 7.5 7.5z"/><path d="m202.207 197.422 12.5 8.727c1.308.913 2.804 1.351 4.286 1.351 2.368 0 4.698-1.119 6.156-3.207 2.371-3.396 1.54-8.072-1.856-10.443l-7.604-5.31 8.768-21.736c1.549-3.841-.31-8.211-4.15-9.761-3.846-1.55-8.212.309-9.762 4.15l-11 27.273c-1.308 3.242-.203 6.956 2.662 8.956z"/><path d="m217.5 261.5c17.762 0 33.217-12.618 36.748-30 .751-3.693-.186-7.486-2.571-10.406-2.386-2.919-5.915-4.594-9.684-4.594h-48.986c-3.769 0-7.298 1.674-9.684 4.594s-3.322 6.713-2.571 10.404c3.531 17.384 18.986 30.002 36.748 30.002zm21.222-30c-3.128 8.85-11.612 15-21.222 15s-18.093-6.149-21.222-15z"/><path d="m365 411.874v-10.258c0-4.142-3.357-7.5-7.5-7.5s-7.5 3.358-7.5 7.5v10.258c0 4.142 3.357 7.5 7.5 7.5s7.5-3.358 7.5-7.5z"/><path d="m406.5 394.115c-4.143 0-7.5 3.358-7.5 7.5v10.258c0 4.142 3.357 7.5 7.5 7.5s7.5-3.358 7.5-7.5v-10.258c0-4.142-3.357-7.5-7.5-7.5z"/><path d="m389.424 429.303c-4.094 4.094-10.754 4.094-14.848 0-2.93-2.929-7.678-2.929-10.607 0s-2.929 7.678 0 10.606c4.972 4.971 11.501 7.457 18.031 7.457s13.06-2.485 18.031-7.457c2.929-2.929 2.929-7.678 0-10.606-2.929-2.929-7.677-2.929-10.607 0z"/><path d="m452.956 382.45c-2.45-25.71-24.159-45.888-50.5-45.888h-2.503c-7.698-22.692-29.192-39.071-54.453-39.071h-5.223c-1.61-15.543-5.917-29.365-12.128-40.153 7.076-4.089 11.851-11.734 11.851-20.477 0-2.783-.489-5.452-1.377-7.933 13.96-5.464 23.877-19.055 23.877-34.928v-11.165c0-9.339-3.44-17.885-9.108-24.457 1.057-6.877 1.608-13.848 1.608-20.879 0-31.28-10.796-61.9-30.397-86.221-2.6-3.225-7.32-3.733-10.547-1.133-3.225 2.599-3.731 7.321-1.133 10.546 17.714 21.979 27.077 48.538 27.077 76.809 0 3.606-.179 7.192-.494 10.757-4.465-1.88-9.366-2.921-14.506-2.921h-5.114v-22.944c0-20.678-16.822-37.5-37.5-37.5h-35.873c-8.338 0-15.95 4.573-19.866 11.935l-7.306 13.738c-3.915 7.362-11.527 11.936-19.865 11.936h-61.861c-12.406 0-22.5 10.093-22.5 22.5v.335h-5.115c-5.14 0-10.042 1.041-14.506 2.921-.315-3.565-.494-7.151-.494-10.757 0-67.547 54.953-122.5 122.5-122.5 25.839 0 50.549 7.953 71.459 22.999 3.363 2.418 8.049 1.656 10.469-1.708 2.419-3.362 1.655-8.049-1.707-10.468-23.479-16.893-51.218-25.823-80.221-25.823-75.817 0-137.5 61.682-137.5 137.5 0 7.031.552 14.002 1.608 20.879-5.668 6.572-9.108 15.117-9.108 24.457v11.164c0 20.678 16.822 37.5 37.5 37.5h11.402c5.528 14.081 14.451 26.468 25.755 36.154l-16.646 29.837h-41.011c-31.706 0-57.5 25.794-57.5 57.5v139.509c0 9.649 7.851 17.5 17.5 17.5h46.5c4.143 0 7.5-3.358 7.5-7.5s-3.357-7.5-7.5-7.5h-46.5c-1.379 0-2.5-1.122-2.5-2.5v-139.509c0-23.435 19.065-42.5 42.5-42.5h32.643l-10.322 18.501c-2.754 4.934-1.845 11.128 2.211 15.063l26.959 26.159-23.59 21.709c-3.991 3.674-5.159 9.457-2.905 14.391l40.502 88.686h-23.998c-4.143 0-7.5 3.358-7.5 7.5s3.357 7.5 7.5 7.5h299.5c6.893 0 12.5-5.607 12.5-12.5v-2.025c0-12.269-5.15-23.351-13.397-31.216 8.883-6.544 15.828-15.565 19.817-26.036h1.66c15.946 0 28.92-12.974 28.92-28.92 0-15.316-11.969-27.882-27.044-28.853zm-50.5-30.888c13.926 0 26.009 8.012 31.903 19.663h-32.387c-16.412 0-31.819-7.321-42.227-19.617.596-.03 1.195-.046 1.798-.046zm-56.956-39.071c16.833 0 31.4 9.843 38.276 24.071h-22.232c-26.341 0-48.051 20.178-50.5 45.888-1.732.112-3.421.383-5.058.787l-11.978-11.023 26.96-26.159c4.056-3.936 4.965-10.13 2.212-15.061l-10.323-18.504h32.643zm6.862 53.203c-6.957 3.377-14.665 5.305-22.711 5.512 3.239-6.393 8.339-11.687 14.589-15.161.009.003.018.005.028.008 2.421 3.476 5.136 6.695 8.094 9.641zm-41.297 59.39c-6.8-.912-12.065-6.737-12.065-13.782 0-6.955 5.133-12.719 11.807-13.742v22.154c0 1.811.094 3.6.258 5.37zm-50.233-141.369v83.89l-25.922-24.173 22.314-58.429c1.214-.404 2.417-.835 3.608-1.288zm62.291-52.215c1.172 1.475 1.877 3.336 1.877 5.361 0 4.764-3.876 8.639-8.64 8.639h-9.696c2.692-4.435 5.016-9.116 6.934-14zm-27.823 29h17.153c6.13 8.555 10.955 21.294 12.764 36.991h-20.728l-16.645-29.837c2.617-2.243 5.106-4.633 7.456-7.154zm-19.468 16.413 33.313 59.714-26.193 25.414-7.121-6.553v-78.575zm49.168-116.578c12.406 0 22.5 10.093 22.5 22.5v11.165c0 12.407-10.094 22.5-22.5 22.5h-6.961c1.21-5.926 1.847-12.058 1.847-18.336v-37.829zm-215 56.165c-12.406 0-22.5-10.093-22.5-22.5v-11.165c0-12.407 10.094-22.5 22.5-22.5h5.114v37.829c0 6.278.636 12.41 1.847 18.336zm20.114-18.336v-53.164c0-4.136 3.364-7.5 7.5-7.5h61.861c13.897 0 26.584-7.623 33.109-19.893l7.306-13.737c1.305-2.455 3.843-3.979 6.622-3.979h35.873c12.406 0 22.5 10.093 22.5 22.5v75.772c0 42.182-34.317 76.5-76.5 76.5h-21.771c-42.182.001-76.5-34.317-76.5-76.499zm47.662 86.84 22.314 58.429-25.922 24.173v-83.89c1.191.452 2.394.883 3.608 1.288zm-18.608 185.019-30.274-66.29 30.274-27.86zm0-114.536-7.121 6.553-26.192-25.414 33.313-59.714zm50.832 141.513h-35.832v-108.884l31.698-29.559 4.134 10.826zm-14.653-208.03c3.693.456 7.453.694 11.267.694h21.771c3.814 0 7.574-.238 11.267-.694l-22.152 58.008zm72.985 139.53c-4.143 0-7.5 3.358-7.5 7.5v61h-35.832v-127.617l4.135-10.826 31.698 29.559v12.884c0 4.142 3.357 7.5 7.5 7.5s7.5-3.358 7.5-7.5v-25.127l16.485 15.17c-5.137 5.221-8.317 12.373-8.317 20.26 0 8.261 3.488 15.719 9.062 20.994l-17.229 37.727v-34.024c-.002-4.142-3.359-7.5-7.502-7.5zm52.68 68.5h-41.01l26.284-57.554c2.132.502 4.35.777 6.633.777h1.66c3.989 10.471 10.934 19.492 19.817 26.036-8.139 7.762-13.252 18.662-13.384 30.741zm14.992 0c.159-9.619 5.17-18.074 12.681-23.036 6.209 2.286 12.915 3.536 19.908 3.536h26.814c6.993 0 13.699-1.25 19.908-3.536 7.511 4.962 12.521 13.417 12.681 23.036zm102.189-77.286c0 23.592-19.193 42.786-42.786 42.786h-26.814c-23.593 0-42.786-19.194-42.786-42.786v-32.416c0-.36.017-.716.027-1.074h2.361c13.38 0 26.085-3.735 36.954-10.453 10.901 6.711 23.603 10.453 36.823 10.453h33.5c.894 0 1.792-.021 2.692-.056.012.376.029.751.029 1.13zm14.742 5.37c.164-1.769.259-3.559.259-5.37v-22.154c6.674 1.023 11.807 6.787 11.807 13.742-.001 7.045-5.266 12.87-12.066 13.782z"/></svg>