<svg height="28" viewBox="0 0 28 28" width="28" xmlns="http://www.w3.org/2000/svg"><circle cx="14" cy="14" fill="#f8f7fa" r="14"/><g transform="translate(-36.025 3.564)"><path d="m207.8 30h2.13v1.221h-2.13z" fill="#0b799d" transform="translate(-159.889 -28.781)"/><path d="m207.8 30h2.13v1.221h-2.13z" fill="#07485e" transform="translate(-159.889 -28.781)"/><path d="m207.8 90.006h1.6v1.221h-1.6z" fill="#0b799d" transform="translate(-159.889 -86.343)"/><path d="m207.8 90.006h1.6v1.221h-1.6z" fill="#07485e" transform="translate(-159.889 -86.343)"/><path d="m207.8 150.01h2.13v1.221h-2.13z" fill="#0b799d" transform="translate(-159.889 -143.906)"/><path d="m207.8 150.01h2.13v1.221h-2.13z" fill="#07485e" transform="translate(-159.889 -143.906)"/><path d="m207.8 210.013h1.6v1.221h-1.6z" fill="#0b799d" transform="translate(-159.889 -201.467)"/><path d="m207.8 210.013h1.6v1.221h-1.6z" fill="#07485e" transform="translate(-159.889 -201.467)"/><path d="m207.8 270.017h2.13v1.221h-2.13z" fill="#0b799d" transform="translate(-159.889 -259.029)"/><path d="m207.8 270.017h2.13v1.221h-2.13z" fill="#07485e" transform="translate(-159.889 -259.029)"/><path d="m62.3 28.062v-13.062h-4.881v13.062a3.73 3.73 0 1 0 4.883 0z" fill="#fff5f5" transform="translate(-14.39 -14.39)"/><path d="m150.24 28.062v-13.062h-2.44v19.612a3.73 3.73 0 0 0 2.442-6.55z" fill="#e1ebf0" transform="translate(-102.326 -14.39)"/><path d="m45.472 20.833a4.341 4.341 0 0 1 -3.052-7.427v-13.406h6.1v13.406a4.341 4.341 0 0 1 -3.052 7.427zm-1.832-19.612v12.73l-.211.183a3.12 3.12 0 1 0 4.084 0l-.211-.183v-12.73z" fill="#e1ebf0"/><path d="m103 115.375v-10.394h-1.221v10.394a1.926 1.926 0 1 0 1.221 0z" fill="#ff415b" transform="translate(-56.92 -100.709)"/><path d="m297.054 66.511-3.609 5.194h1.778v4.308h3.662v-4.308h1.778z" fill="#ff415b" transform="translate(-242.047 -63.805)"/><path d="m150.85 13.406v-13.406h-3.05v1.221h1.831v12.73l.211.183a3.12 3.12 0 0 1 -2.042 5.479v1.221a4.341 4.341 0 0 0 3.052-7.427z" fill="#b4d2d7" transform="translate(-102.326)"/><g fill="#e50058"><path d="m149.724 117.2a1.929 1.929 0 0 0 -1.316-1.826v-10.393h-.61v14.147a1.928 1.928 0 0 0 1.926-1.928z" transform="translate(-102.326 -100.709)"/><path d="m382.137 66.511v9.5h1.831v-4.306h1.778z" transform="translate(-327.129 -63.804)"/></g></g></svg>