<svg id="Layer_1" enable-background="new 0 0 468 468" height="512" viewBox="0 0 468 468" width="512" xmlns="http://www.w3.org/2000/svg"><g><g><g><g><path d="m133.83 153.678h-117.612c-8.957 0-16.218-7.261-16.218-16.22v-121.238c0-8.959 7.261-16.22 16.218-16.22h117.612c8.957 0 16.218 7.261 16.218 16.22v121.238c0 8.959-7.262 16.22-16.218 16.22zm-101.395-32.44h85.177v-88.798h-85.177z"/></g><g><path d="m133.83 468h-117.612c-8.957 0-16.218-7.261-16.218-16.22v-121.238c0-8.958 7.261-16.22 16.218-16.22h117.612c8.957 0 16.218 7.261 16.218 16.22v121.238c0 8.959-7.262 16.22-16.218 16.22zm-101.395-32.44h85.177v-88.799h-85.177z"/></g><g><path d="m5.177 183.57h61.336v32.44h-61.336z"/></g><g><path d="m114.432 183.57h86.024v32.44h-86.024z"/></g><g><path d="m184.239 16.22h32.435v141.712h-32.435z"/></g><g><path d="m184.239 391.438h32.435v60.342h-32.435z"/></g><g><path d="m216.674 352.983h-32.436v-69.166h-179.061v-32.44h195.28c8.957 0 16.218 7.261 16.218 16.22v85.386z"/></g><g><path d="m451.782 153.678h-117.612c-8.957 0-16.218-7.261-16.218-16.22v-121.238c0-8.958 7.26-16.22 16.218-16.22h117.613c8.957 0 16.217 7.261 16.217 16.22v121.238c0 8.959-7.26 16.22-16.218 16.22zm-101.395-32.44h85.177v-88.798h-85.177z"/></g><g><path d="m451.782 468h-117.612c-8.957 0-16.218-7.261-16.218-16.22v-121.238c0-8.958 7.26-16.22 16.218-16.22h117.613c8.957 0 16.218 7.261 16.218 16.22v121.238c-.001 8.959-7.261 16.22-16.219 16.22zm-101.395-32.44h85.177v-88.799h-85.177z"/></g><g><path d="m402.664 183.57h60.159v32.44h-60.159z"/></g><g><path d="m365.145 216.009h-97.602c-8.957 0-16.218-7.261-16.218-16.22v-121.465h32.436v105.246h81.384z"/></g><g><path d="m251.325 16.22h32.435v35.162h-32.435z"/></g><g><path d="m283.761 451.78h-32.436v-184.183c0-8.958 7.26-16.22 16.218-16.22h48.801v32.44h-32.584v167.963z"/></g><g><path d="m355.177 251.377h107.646v32.44h-107.646z"/></g><g><path d="m376.757 59.259h32.435v35.162h-32.435z"/></g><g><path d="m376.762 373.579h32.435v35.162h-32.435z"/></g><g><path d="m58.806 373.579h32.435v35.162h-32.435z"/></g><g><path d="m58.806 59.259h32.435v35.162h-32.435z"/></g></g></g></g></svg>