<svg height="15.16" viewBox="0 0 11.969 15.16" width="11.969" xmlns="http://www.w3.org/2000/svg"><g fill="#2d9173"><path d="m96.3 186a.3.3 0 1 0 .3.3.3.3 0 0 0 -.3-.3z" transform="translate(-94.812 -180.491)"/><path d="m161.638 147.779h-1.484v-1.484a.3.3 0 0 0 -.3-.3h-1.781a.3.3 0 0 0 -.3.3v1.484h-1.473a.3.3 0 0 0 -.3.3v1.781a.3.3 0 0 0 .3.3h1.484v1.484a.3.3 0 0 0 .3.3h1.781a.3.3 0 0 0 .3-.3v-1.484h1.484a.3.3 0 0 0 .3-.3v-1.781a.3.3 0 0 0 -.311-.3zm-.3 1.781h-1.484a.3.3 0 0 0 -.3.3v1.484h-1.187v-1.484a.3.3 0 0 0 -.3-.3h-1.484v-1.187h1.484a.3.3 0 0 0 .3-.3v-1.484h1.187v1.484a.3.3 0 0 0 .3.3h1.484z" transform="translate(-152.982 -141.681)"/><path d="m66.6.91a3 3 0 0 1 -1.627.476 3 3 0 0 1 -2.291-1.06.911.911 0 0 0 -1.4 0 3 3 0 0 1 -2.294 1.06 3 3 0 0 1 -1.624-.476.894.894 0 0 0 -1.364.757v6.04a6.133 6.133 0 0 0 1.226 3.7 12.665 12.665 0 0 0 4.64 3.734.3.3 0 0 0 .236 0 12.666 12.666 0 0 0 4.64-3.733 6.134 6.134 0 0 0 1.226-3.7v-6.041a.894.894 0 0 0 -1.368-.757zm-.339 10.137a12.39 12.39 0 0 1 -4.28 3.491 12.352 12.352 0 0 1 -4.28-3.491 5.541 5.541 0 0 1 -1.101-3.34v-6.04a.3.3 0 0 1 .441-.26 3.605 3.605 0 0 0 1.953.571 3.6 3.6 0 0 0 2.749-1.271.308.308 0 0 1 .48 0 3.6 3.6 0 0 0 2.752 1.271 3.605 3.605 0 0 0 1.953-.571.3.3 0 0 1 .441.26v6.04a5.543 5.543 0 0 1 -1.106 3.34z" transform="translate(-55.999)"/><path d="m105.468 49.471a.3.3 0 0 0 -.273-.037 4.231 4.231 0 0 1 -4.2-.819.3.3 0 0 0 -.4 0 4.231 4.231 0 0 1 -4.2.819.3.3 0 0 0 -.273.037.3.3 0 0 0 -.127.242v2.007a.3.3 0 0 0 .6 0v-1.607a4.838 4.838 0 0 0 4.2-.89 4.838 4.838 0 0 0 4.2.89v4.693a4.345 4.345 0 0 1 -.868 2.626 11.062 11.062 0 0 1 -3.327 2.868 11.163 11.163 0 0 1 -3.333-2.864 4.348 4.348 0 0 1 -.867-2.627v-.719a.3.3 0 0 0 -.6 0v.719a4.938 4.938 0 0 0 .988 2.983 11.8 11.8 0 0 0 3.667 3.106.3.3 0 0 0 .288 0 11.687 11.687 0 0 0 3.663-3.107 4.935 4.935 0 0 0 .988-2.982v-5.096a.3.3 0 0 0 -.126-.242z" transform="translate(-94.813 -47.098)"/></g></svg>