<?xml version="1.0" encoding="iso-8859-1"?>
<!-- Generator: Adobe Illustrator 22.1.0, SVG Export Plug-In . SVG Version: 6.00 Build 0)  -->
<svg xmlns="http://www.w3.org/2000/svg" xmlns:xlink="http://www.w3.org/1999/xlink" version="1.1" id="Layer_3" x="0px" y="0px" viewBox="0 0 64 64" style="enable-background:new 0 0 64 64;" xml:space="preserve" width="512" height="512">
<g>
	<path d="M21,53c-1.654,0-3,1.346-3,3s1.346,3,3,3s3-1.346,3-3S22.654,53,21,53z M21,57c-0.552,0-1-0.448-1-1s0.448-1,1-1   s1,0.448,1,1S21.552,57,21,57z"/>
	<rect x="13" y="20" width="2" height="2"/>
	<path d="M19,25v-5h-2v4h-4v2h5C18.553,26,19,25.553,19,25z"/>
	<path d="M14,36h5v-2h-4v-6h-2v7C13,35.553,13.447,36,14,36z"/>
	<path d="M22,30h-5v2h4v4h2v-5C23,30.447,22.553,30,22,30z"/>
	<rect x="27" y="34" width="2" height="2"/>
	<rect x="25" y="32" width="2" height="2"/>
	<rect x="19" y="26" width="2" height="2"/>
	<rect x="21" y="24" width="2" height="2"/>
	<path d="M25,26h2v-5c0-0.553-0.447-1-1-1h-5v2h4V26z"/>
	<rect x="25" y="28" width="2" height="2"/>
	<path d="M57,34c-2.436,0-4.533,1.461-5.472,3.551L43.8,32.914C44.557,31.796,45,30.449,45,29s-0.443-2.796-1.2-3.914l7.728-4.637   C52.467,22.539,54.564,24,57,24c3.309,0,6-2.691,6-6s-2.691-6-6-6s-6,2.691-6,6c0,0.142,0.012,0.281,0.021,0.421l-8.599,5.159   C41.99,23.226,41.51,22.929,41,22.685V6c0-2.757-2.243-5-5-5H6C3.243,1,1,3.243,1,6v52c0,2.757,2.243,5,5,5h30c2.757,0,5-2.243,5-5   V35.315c0.51-0.243,0.99-0.541,1.423-0.895l8.599,5.159C51.012,39.719,51,39.858,51,40c0,3.309,2.691,6,6,6s6-2.691,6-6   S60.309,34,57,34z M57,14c2.206,0,4,1.794,4,4s-1.794,4-4,4s-4-1.794-4-4S54.794,14,57,14z M35,22.685   c-0.749,0.357-1.426,0.839-2,1.426V17c0-0.553-0.447-1-1-1H10c-0.553,0-1,0.447-1,1v22c0,0.553,0.447,1,1,1h22c0.553,0,1-0.447,1-1   v-5.111c0.574,0.587,1.251,1.068,2,1.426V49H7V7h28V22.685z M31,38H11V18h20V38z M33,29c0-2.757,2.243-5,5-5s5,2.243,5,5   s-2.243,5-5,5S33,31.757,33,29z M39,58c0,1.654-1.346,3-3,3H6c-1.654,0-3-1.346-3-3V6c0-1.654,1.346-3,3-3h30c1.654,0,3,1.346,3,3   v16.08C38.672,22.033,38.34,22,38,22s-0.672,0.033-1,0.08V6c0-0.553-0.447-1-1-1H6C5.447,5,5,5.447,5,6v44c0,0.553,0.447,1,1,1h30   c0.553,0,1-0.447,1-1V35.92c0.328,0.047,0.66,0.08,1,0.08s0.672-0.033,1-0.08V58z M57,44c-2.206,0-4-1.794-4-4s1.794-4,4-4   s4,1.794,4,4S59.206,44,57,44z"/>
</g>
</svg>
