<svg height="16.447" viewBox="0 0 10.757 16.447" width="10.757" xmlns="http://www.w3.org/2000/svg"><path d="m126.707 196.65a4.07 4.07 0 0 0 4.07-4.07c0-2.248-4.07-6.4-4.07-6.4zm0 0" fill="#cd2a00" transform="translate(-122.637 -180.203)"/><path d="m0 192.58a4.07 4.07 0 0 0 4.07 4.07v-10.466s-4.07 4.148-4.07 6.396zm1.454 0a2.329 2.329 0 0 0 2.326 2.326 2.329 2.329 0 0 1 -2.326-2.326zm0 0" fill="#ab2300" transform="translate(0 -180.203)"/><path d="m190.059 26.645a2.328 2.328 0 0 0 2.326 2.326v-6.119c-1.25 1.498-2.326 3.129-2.326 3.793zm0 0" fill="#ab2300" transform="translate(-183.954 -22.118)"/><path d="m262.461 22.816v6.12a2.328 2.328 0 0 0 2.326-2.326c0-.61-1.009-2.218-2.326-3.794zm0 0" fill="#cd2a00" transform="translate(-254.03 -22.083)"/><path d="m100.607 1.678a11.186 11.186 0 0 0 -1.052-1.678v3.074a1.165 1.165 0 0 0 1.09-.756.824.824 0 0 0 -.038-.64zm0 0" fill="#cd2a00" transform="translate(-96.357)"/><path d="m65.237 3.081v-3.073a11.444 11.444 0 0 0 -1.053 1.665.836.836 0 0 0 -.041.64 1.165 1.165 0 0 0 1.094.768zm0 0" fill="#ab2300" transform="translate(-62.039 -.008)"/><path d="m38.816 387.91a2.62 2.62 0 0 1 -2.617-2.617h.581a2.038 2.038 0 0 0 2.035 2.035zm0 0" fill="#f8f7fa" transform="translate(-35.036 -372.916)"/></svg>