<svg height="57.706" viewBox="0 0 57.703 57.706" width="57.703" xmlns="http://www.w3.org/2000/svg"><g transform="translate(-.016)"><path d="m30.351 27.258a5.907 5.907 0 0 1 -5.908 5.908h-11.02a5.907 5.907 0 0 1 -5.908-5.908v-13.85a5.907 5.907 0 0 1 5.908-5.908h11.021a5.907 5.907 0 0 1 5.908 5.908v13.85z" fill="#bed8fb" transform="translate(-6.654 -6.655)"/><path d="m34.529 7.514a5.882 5.882 0 0 1 1.264 3.652v13.85a5.908 5.908 0 0 1 -5.908 5.908s-11.112 0-11.157 0a5.9 5.9 0 0 0 4.644 2.256h11.021a5.907 5.907 0 0 0 5.907-5.909v-13.851a5.907 5.907 0 0 0 -5.771-5.906z" fill="#9dc6fb" transform="translate(-16.603 -6.667)"/><path d="m43.473 59.4a2.093 2.093 0 0 1 -2.091-2.091v-13.851a2.093 2.093 0 0 1 2.091-2.091h11.021a2.093 2.093 0 0 1 2.091 2.091v13.85a2.093 2.093 0 0 1 -2.091 2.092z" fill="#617881" transform="translate(-36.704 -36.705)"/><path d="m54.494 41.367h-2.417v13.687a2.093 2.093 0 0 1 -2.091 2.091h-8.6v.163a2.093 2.093 0 0 0 2.087 2.092h11.021a2.093 2.093 0 0 0 2.091-2.091v-13.851a2.093 2.093 0 0 0 -2.091-2.091z" fill="#475959" transform="translate(-36.704 -36.705)"/><path d="m182.119 10.877a3.377 3.377 0 0 0 -3.377-3.377h-21.017a5.907 5.907 0 0 1 5.908 5.908v13.85a5.909 5.909 0 0 1 -4.771 5.8l20.469-3.715a3.377 3.377 0 0 0 2.789-3.326v-15.14z" fill="#f1f4f6" transform="translate(-139.935 -6.655)"/><path d="m66.531 455.88v.013h-10.437a1.872 1.872 0 0 1 -1.872-1.872v3.817a1.872 1.872 0 0 0 1.872 1.872h10.437v-.01a1.872 1.872 0 0 0 1.653-1.859v-3.821a1.873 1.873 0 0 1 -1.653 1.86z" fill="#bed8fb" transform="translate(-48.097 -402.852)"/><path d="m66.531 455.88v.013h-2.881a1.873 1.873 0 0 1 -1.627 1.55v.013h-7.8v.382a1.872 1.872 0 0 0 1.872 1.872h10.436v-.01a1.872 1.872 0 0 0 1.653-1.859v-3.817a1.873 1.873 0 0 1 -1.653 1.856z" fill="#9dc6fb" transform="translate(-48.097 -402.853)"/><path d="m351.419 10.864a3.377 3.377 0 0 0 -3.377-3.364h-3.831a3.377 3.377 0 0 1 3.377 3.377v15.139a3.377 3.377 0 0 1 -2.789 3.326l3.9-.7a3.377 3.377 0 0 0 2.776-3.337z" fill="#bed8fb" transform="translate(-305.404 -6.655)"/><path d="m351.419 10.864a3.377 3.377 0 0 0 -3.377-3.364h-3.831a3.377 3.377 0 0 1 3.377 3.377v15.139a3.377 3.377 0 0 1 -2.789 3.326l3.9-.7a3.377 3.377 0 0 0 2.776-3.337z" fill="#9dc6fb" transform="translate(-305.404 -6.655)"/><path d="m157.861 7.5h-.135z" fill="#dfeaef" transform="translate(-139.935 -6.655)"/><path d="m187.688 7.5h-1.322a3.373 3.373 0 0 1 .191 1.123v15.139a3.377 3.377 0 0 1 -2.789 3.326l-11.507 2.086a5.917 5.917 0 0 1 -4.454 3.883l20.469-3.715a3.377 3.377 0 0 0 2.789-3.326v-15.139a3.377 3.377 0 0 0 -3.377-3.377z" fill="#dfeaef" transform="translate(-148.881 -6.655)"/><path d="m67.022 221.835a5.935 5.935 0 0 1 -1.136.109h-11.021a36.486 36.486 0 0 1 .147 12.212l-.152.968a52.422 52.422 0 0 0 -.638 8.153v3.323a1.872 1.872 0 0 0 1.872 1.872h10.436v-.013a1.872 1.872 0 0 0 1.653-1.859v-3.324a52.426 52.426 0 0 0 -.638-8.154l-.158-1a11.7 11.7 0 0 1 1.785-8.3 15.632 15.632 0 0 1 6.534-5.561z" fill="#f1f4f6" transform="translate(-48.096 -195.433)"/><path d="m134.041 221.836a5.939 5.939 0 0 1 -1.12.109 15.664 15.664 0 0 0 -1.239 1.619 11.7 11.7 0 0 0 -1.785 8.3l.158 1a52.424 52.424 0 0 1 .638 8.154v7.141a1.878 1.878 0 0 1 -.025.309h2.881v-.013a1.872 1.872 0 0 0 1.651-1.855v-3.324a52.426 52.426 0 0 0 -.638-8.154l-.158-1a11.7 11.7 0 0 1 1.785-8.3 15.632 15.632 0 0 1 6.534-5.561z" fill="#dfeaef" transform="translate(-115.115 -195.434)"/><g fill="#eaaa89"><path d="m444.429 89.436h-4.636a1.409 1.409 0 0 1 0-2.818h4.636a1.409 1.409 0 0 1 0 2.818z" transform="translate(-388.964 -76.856)"/><path d="m434.667 13.6a1.409 1.409 0 0 1 -1-2.4l3.278-3.278a1.409 1.409 0 0 1 1.996 1.978l-3.278 3.278a1.4 1.4 0 0 1 -.996.422z" transform="translate(-384.415 -6.655)"/><path d="m434.667 136.652a1.409 1.409 0 0 0 -1 2.4l3.278 3.278a1.409 1.409 0 0 0 1.992-1.992l-3.278-3.278a1.4 1.4 0 0 0 -.992-.408z" transform="translate(-384.415 -121.251)"/></g><path d="m173.2 262.715a7.443 7.443 0 0 1 -.553-2.814v-1.848a15.672 15.672 0 0 0 -.969 1.3 11.629 11.629 0 0 0 -1.92 6.941h2.178a1.831 1.831 0 0 0 1.695-2.523z" fill="#bed8fb" transform="translate(-150.606 -228.969)"/><path d="m437.774 79.118h-4.635a2.254 2.254 0 1 0 0 4.508h4.635a2.254 2.254 0 1 0 0-4.508zm0 2.818h-4.635a.563.563 0 0 1 0-1.127h4.635a.563.563 0 1 1 0 1.127z" transform="translate(-382.31 -70.201)"/><path d="m432.892 136.274a2.257 2.257 0 0 0 0-3.188l-3.278-3.278a2.254 2.254 0 0 0 -3.188 3.192l3.278 3.278a2.257 2.257 0 0 0 3.188-.004zm-4.872-5.435c.413 0 .272.119 3.676 3.443a.564.564 0 1 1 -.8.8l-3.278-3.278a.564.564 0 0 1 .402-.965z" transform="translate(-377.769 -114.593)"/><path d="m429.706.668-3.278 3.278a2.254 2.254 0 0 0 3.188 3.188l3.278-3.278a2.254 2.254 0 0 0 -3.188-3.188zm-2.082 4.473 3.276-3.277a.563.563 0 1 1 .8.8c-3.4 3.324-3.263 3.443-3.676 3.443a.564.564 0 0 1 -.4-.965z" transform="translate(-377.771 -.008)"/><path d="m6.05 27.318a36.066 36.066 0 0 1 -.122 12.241 53.462 53.462 0 0 0 -.6 6.1.845.845 0 1 0 1.689.069 54.018 54.018 0 0 1 .736-6.872 37.235 37.235 0 0 0 .018-11.5c10.345-.039 10.194.09 11.294-.12.373-.061-1.484.27 4.426-.8a16.509 16.509 0 0 0 -3.117 3.484 13.157 13.157 0 0 0 -1.759 9.907 66.194 66.194 0 0 1 .628 11.347 1.026 1.026 0 0 1 -.905 1.02l-.048.007h-10.29a1.028 1.028 0 0 1 -1.03-1.032v-1.5a.845.845 0 1 0 -1.691 0v5.316a2.72 2.72 0 0 0 2.721 2.715c11.007-.016 10.458.04 10.707-.044a2.717 2.717 0 0 0 2.228-2.673v-3.815a67.77 67.77 0 0 0 -.648-11.61c-.139-.891-.172-1.063-.212-1.388h1.262a2.677 2.677 0 0 0 2.477-3.688 8.683 8.683 0 0 1 -.922-3.552v-1.54a14.746 14.746 0 0 1 4.976-3.756c10.059-1.823 12.7-2.305 15.583-2.812a4.217 4.217 0 0 0 3.471-4.172l-.013-3.143a.845.845 0 0 0 -1.691.007l.013 3.143a2.528 2.528 0 0 1 -2.079 2.5l-.569.1c.792-1.574.3-1.555.45-17.038a4.2 4.2 0 0 0 -.845-2.532h.454a2.537 2.537 0 0 1 2.528 2.527l.046 7.358a.845.845 0 0 0 1.691-.011l-.047-7.356a4.231 4.231 0 0 0 -4.222-4.205h-35.869a6.76 6.76 0 0 0 -6.753 6.753v13.847a6.763 6.763 0 0 0 6.034 6.718zm12.286 28.687-.048.007h-10.288a1.028 1.028 0 0 1 -1.03-1.026v-1.3c.871.357.628.132 11.463.2a3.033 3.033 0 0 0 .807-.2v1.3a1.026 1.026 0 0 1 -.905 1.02zm3-19.525h-1.342a10.745 10.745 0 0 1 1.245-4.724 11.19 11.19 0 0 0 1.007 3.366c.126.309-.208 1.358-.912 1.358zm17.471-34.79a2.535 2.535 0 0 1 2.532 2.532v15.139a2.529 2.529 0 0 1 -2.081 2.491h-.014c-20.8 3.77-9.728 1.762-16.156 2.931a6.72 6.72 0 0 0 1.455-4.183v-13.847a6.738 6.738 0 0 0 -2.288-5.063zm-37.1 5.063a5.068 5.068 0 0 1 5.062-5.063h11.021a5.068 5.068 0 0 1 5.062 5.062v13.848a5.068 5.068 0 0 1 -5.062 5.062c-12.823 0-10.808 0-11.027 0a5.068 5.068 0 0 1 -5.057-5.062v-13.847z"/><path d="m36.819 53.589h11.021a2.939 2.939 0 0 0 2.936-2.936v-13.853a2.939 2.939 0 0 0 -2.936-2.936h-11.021a2.939 2.939 0 0 0 -2.936 2.936v2.164a.845.845 0 0 0 1.691 0v-2.164a1.247 1.247 0 0 1 1.245-1.245h11.021a1.247 1.247 0 0 1 1.246 1.245v13.85a1.247 1.247 0 0 1 -1.246 1.25h-11.021a1.247 1.247 0 0 1 -1.245-1.245v-7.969a.845.845 0 1 0 -1.691 0v7.967a2.939 2.939 0 0 0 2.936 2.936z" transform="translate(-30.05 -30.05)"/><path d="m63.9 59.075a2.259 2.259 0 1 0 2.259 2.259 2.261 2.261 0 0 0 -2.259-2.259zm0 2.827a.568.568 0 1 1 .568-.568.569.569 0 0 1 -.568.566z" transform="translate(-54.683 -52.417)"/><path d="m97.671 93.309a1.8 1.8 0 0 1 1.794 1.791.845.845 0 1 0 1.691 0 3.484 3.484 0 0 0 -6.968 0v3.4a3.484 3.484 0 0 0 6.968 0 .845.845 0 1 0 -1.691 0 1.794 1.794 0 0 1 -3.587 0v-3.4a1.8 1.8 0 0 1 1.793-1.791z" transform="translate(-83.558 -81.293)"/><path d="m236.749 43.5h9.223a.845.845 0 0 0 0-1.691h-9.223a.845.845 0 1 0 0 1.691z" transform="translate(-209.303 -37.097)"/><path d="m236.749 76.852h3.861a.845.845 0 0 0 0-1.691h-3.861a.845.845 0 1 0 0 1.691z" transform="translate(-209.303 -66.69)"/></g></svg>