<svg enable-background="new 0 0 512 512" height="512" viewBox="0 0 553.138 553.138" width="512" xmlns="http://www.w3.org/2000/svg"><g xmlns="http://www.w3.org/2000/svg"><path d="m274.725 456.34c-3.823 0-6.914 3.09-6.914 6.914v82.97c0 3.823 3.09 6.914 6.914 6.914s6.914-3.091 6.914-6.914v-82.97c0-3.823-3.09-6.914-6.914-6.914z"/><path d="m274.725 0c-3.823 0-6.914 3.09-6.914 6.914v82.977c0 3.823 3.09 6.914 6.914 6.914s6.914-3.091 6.914-6.914v-82.977c0-3.823-3.09-6.914-6.914-6.914z"/><path d="m477.919 174.983c-2.489-5.856-23.667-51.102-81.117-51.102s-78.621 45.253-81.11 51.102c-2.407 4.307-17.991 34.812-17.991 101.589 0 91.274 37.046 145.771 99.1 145.771 62.055 0 99.107-54.497 99.109-145.771 0-66.783-15.585-97.288-17.991-101.589zm-81.111 233.532c-53.398 0-85.272-49.325-85.272-131.942 0-66.418 16.152-94.724 16.297-94.973l.539-1.113c.159-.429 16.76-42.778 68.429-42.778 51.345 0 67.772 41.049 68.45 42.778l.539 1.113c.159.27 16.297 27.94 16.297 94.973 0 82.617-31.874 131.942-85.279 131.942z"/><path d="m185.043 262.394c-5.041-2.13-10.233-3.893-15.412-5.352 14.388-4.197 26.212-10.233 34.868-17.97.968-.809 23.66-20.072 23.66-50.688 0-12.245-3.582-29.952-21.137-45.177-5.752-5.808-23.176-19.325-60.54-19.325-41.16 0-76.145 25.894-77.618 26.993l8.304 11.063c.311-.242 32.71-24.227 69.307-24.227 33.063 0 47.168 11.657 50.853 15.377.221.221.602.567 1.134 1.023 10.523 9.112 15.854 20.645 15.854 34.273 0 24.214-18.502 39.909-18.689 40.061l-.712.629c-8.539 7.647-29.689 20.307-76.38 21.074-2.717-.049-4.404.027-4.715.041l.235 13.821c1.341 0 2.682-.007 4.01-.028 10.018.07 38.124 1.238 61.57 11.146 30.436 12.86 47.203 35.158 47.203 62.773 0 23.197-9.113 41.167-27.857 54.919-14.388 10.565-32.558 15.695-55.541 15.695-25.99 0-49.775-9.845-79.727-25.734l-6.485 12.224c31.832 16.877 57.359 27.338 86.212 27.338 26.038 0 46.877-6.008 63.742-18.362 22.229-16.324 33.506-38.553 33.506-66.078 0-33.533-19.768-60.353-55.645-75.509z"/></g></svg>